<?xml version="1.0" encoding="utf-8"?>
<!-- Generator: Adobe Illustrator 24.1.2, SVG Export Plug-In . SVG Version: 6.00 Build 0)  -->
<svg version="1.1" id="Ñëîé_1" xmlns="http://www.w3.org/2000/svg" xmlns:xlink="http://www.w3.org/1999/xlink" x="0px" y="0px"
	 viewBox="0 0 2300 2000" style="enable-background:new 0 0 2300 2000;" xml:space="preserve">
<style type="text/css">
	.st0{fill:#FFFFFF;}
	.st1{fill:#FFAA00;}
	.st2{fill:#A2C3F2;}
	.st3{fill:#FDFFFE;}
	.st4{fill:#305777;}
	.st5{fill:#F69D85;}
	.st6{fill:#3E8EDD;}
	.st7{fill:#606A97;}
	.st8{fill:#404D7F;}
	.st9{fill:#D1836B;}
	.st10{fill:#5E3628;}
	.st11{fill:#AF5945;}
	.st12{fill:#30313C;}
	.st13{fill:#FF593A;}
</style>
<rect id="_x35_" x="-413.8" y="-500.9" class="st0" width="2300" height="2000"/>
<g>
	<path id="_x34_" class="st1" d="M206.8,1827.2c0,0-98.3-671.7,75.7-1125.7C507.5,113.9,884.9,28.8,1010.9,383
		s135.6,370,579.2,200.8s308.5,244.2,336.9,448.2c32.6,234.4,398.1-95.5,124.2,795.3L206.8,1827.2z"/>
	<g id="_x33_">
		<path class="st2" d="M1602.7,315.8c2.2,0,4.4,0.2,6.5,0.5c-0.2-1.6-0.3-3.3-0.3-5c0-22,17.8-39.8,39.8-39.8
			c13.9,0,26.1,7.1,33.2,17.8c2.9-19.1,19.4-33.8,39.3-33.8c22,0,39.8,17.8,39.8,39.8c0,4-0.6,7.9-1.7,11.5c0.6,0,1.1,0,1.7,0
			c22,0,39.8,17.8,39.8,39.8c0,22-17.8,39.8-39.8,39.8c-8.6,0-16.5-2.7-23-7.4c-8.8,18.5-27.7,31.2-49.5,31.2
			c-23.3,0-43.3-14.6-51.2-35.2c-6.8,12-19.8,20.1-34.6,20.1c-22,0-39.8-17.8-39.8-39.8C1562.9,333.6,1580.7,315.8,1602.7,315.8z"/>
		<path class="st3" d="M825.9,423.5c-2.7,0.2-5.4,0.6-8,1.2c0.1-2,0.1-4.1,0-6.2c-1.9-27.2-25.4-47.7-52.6-45.8
			c-17.1,1.2-31.6,11-39.5,24.8c-5.2-23.4-26.9-40.1-51.5-38.4c-27.2,1.9-47.7,25.4-45.8,52.6c0.3,5,1.4,9.7,3.1,14.1
			c-0.7,0-1.4,0-2.1,0.1c-27.2,1.9-47.7,25.4-45.8,52.6c1.9,27.2,25.4,47.7,52.6,45.8c10.6-0.7,20.2-4.8,27.8-11
			c12.5,22.1,36.8,36.3,63.8,34.4c28.9-2,52.3-21.7,60.3-47.8c9.5,14.3,26.2,23.2,44.5,22c27.2-1.9,47.7-25.4,45.8-52.6
			C876.6,442.1,853,421.6,825.9,423.5z"/>
	</g>
	<g id="_x32_">
		<path class="st4" d="M1626.8,1026.2c0,0-16.1,63-54.4,82.4C1572.3,1108.6,1573.1,1040.5,1626.8,1026.2z"/>
		<path class="st5" d="M1613.3,1102.7l-200.5-109.4c-5.1-3.8-9.1-9-11.3-15.5l-0.9-2.7l-75.1-246.8c-0.1-0.4-0.3-1-0.5-1.5
			c-6.8-23.1,6.4-47.3,29.4-54.1c23.1-6.8,45.9,29.4,52.7,52.5l58.4,230.1l180.8,107.9c9.4,8.8,10.9,23.4,3.1,34.1
			C1640.9,1108.7,1624.8,1111.1,1613.3,1102.7z"/>
		<path class="st6" d="M1341.9,639.1c0,0-31.8,39.6-32.4,114.3c-0.4,57.3,15,193.1,55.1,241c33.3,39.7,207.7,114.2,207.7,114.2
			s17-59.6,54.4-82.4L1491.2,940c0,0-46.9-164.3-67.5-212.9C1391.3,650.6,1341.9,639.1,1341.9,639.1z"/>
		<path class="st5" d="M1344.6,1423.5l-34.7,339.3c-23,48.7-121.8,51.5-107.5,0.6l43.6-359L1344.6,1423.5z"/>
		<path class="st7" d="M1196.5,1812.9c0.6,2.2,1.6,4.2,2.8,6c3.2,4.4,8.3,7.3,14.1,7.3l132.4,0.1c6.6,0,11.6-3.8,14.1-8.9
			c0.8-1.5,1.3-3.2,1.6-4.9c0.8-5.2-0.7-10.8-5.2-14.9l-46.5-34.9c-61.3,9.3-106.9-5.9-106.9-5.9l-1.4,6.6
			c-3.1,14.4-5,29.1-5.7,43.8l0,0C1195.8,1809.2,1196,1811.1,1196.5,1812.9z"/>
		<path class="st8" d="M1196.5,1812.9c2,7.7,8.8,13.3,16.9,13.4l132.4,0.1c8.6,0,14.5-6.5,15.7-13.8L1196.5,1812.9z"/>
		<path class="st6" d="M1125.7,1092.6l81.7,345.2l-18.1,298.9c0,0,64.7,20,142.5,1.8c0,0,44.7-197.8,52.7-300.6
			c8.8-111.3-25.7-345.4-25.7-345.4L1125.7,1092.6z"/>
		<path class="st5" d="M1030.2,1410.8l-222.5,258.4c-46.7,26.8-129.3-27.4-88.5-60.9l241.1-269.6L1030.2,1410.8z"/>
		<path class="st7" d="M686,1645.6c-0.8,2.1-1.2,4.4-1.1,6.6c0.1,5.5,2.6,10.8,7.3,14.1l108.6,75.8c5.4,3.8,11.7,3.5,16.7,0.8
			c1.5-0.8,2.9-1.9,4.1-3.2c3.6-3.8,5.6-9.2,4.2-15.2l-18.2-55.2c-55.6-27.4-84.3-65.9-84.3-65.9l-4.9,4.6
			c-10.8,10.1-20.7,21-29.7,32.7l0,0C687.6,1642.1,686.7,1643.8,686,1645.6z"/>
		<path class="st8" d="M686,1645.6c-2.7,7.4-0.4,16,6.2,20.6l108.6,75.8c7,4.9,15.6,3,20.8-2.4L686,1645.6z"/>
		<path class="st6" d="M1026.7,1013c-54.4,48.4-116.9,328.6-116.9,328.6L724,1576.4c0,0,41.6,53.4,115.9,83
			c0,0,163.6-124.8,232-229.4c68.8-105.3,156.3-319.2,156.3-319.2L1026.7,1013z"/>
		
			<rect x="1262.9" y="570.4" transform="matrix(0.2122 -0.9772 0.9772 0.2122 446.1318 1761.0258)" class="st5" width="104.8" height="66.9"/>
		<path class="st9" d="M1294.8,599.3c24.5,19.9,50.7,22.6,50.7,22.6l4.3-19.8L1294.8,599.3z"/>
		<path class="st10" d="M1266.7,492.4c0,0-7.8-19-0.3-37.5l20.7,6.5C1287,461.4,1273.3,475,1266.7,492.4z"/>
		<path class="st5" d="M1312.1,606.5L1312.1,606.5c-37.8-8.9-61.2-46.7-52.4-84.5l8.3-35.5c8.9-37.8,46.7-61.2,84.5-52.4l0,0
			c37.8,8.9,61.2,46.7,52.4,84.5l-8.3,35.5C1387.7,592,1349.9,615.4,1312.1,606.5z"/>
		<path class="st5" d="M1423.5,546c-2.4,10-12.4,16.3-22.4,13.9c-10-2.4-16.3-12.4-13.9-22.5c2.4-10,12.4-16.3,22.4-13.9
			C1419.6,525.9,1425.8,536,1423.5,546z"/>
		
			<ellipse transform="matrix(0.6557 -0.7551 0.7551 0.6557 49.2097 1129.0574)" class="st5" cx="1262.5" cy="510.6" rx="18.7" ry="18.7"/>
		<path class="st5" d="M1224.4,1013l4,0.9c60.3,13.1,119.9-25.2,133-85.5l36.3-167.3c13.1-60.3-33.3-119.2-85.5-133l-4-0.9
			c-50.4-10.9-119.9,25.2-133,85.5L1138.8,880C1125.7,940.4,1164,999.9,1224.4,1013z"/>
		<path class="st9" d="M1369.3,541.9c-0.3,3.7-3.8,6.5-7.9,6.3s-7.2-3.6-6.9-7.3s3.8-6.5,7.9-6.3
			C1366.4,534.8,1369.5,538.1,1369.3,541.9z"/>
		<path class="st9" d="M1291.6,526.8c-0.3,3.7-3.8,6.5-7.9,6.3s-7.2-3.6-6.9-7.3s3.8-6.5,7.9-6.3
			C1288.7,519.8,1291.8,523,1291.6,526.8z"/>
		<path class="st11" d="M1260.4,521.5c0.5,0,1-0.3,1.1-0.8c1.6-7-2.8-9.4-5.7-10.9c-1.3-0.7-2.5-1.4-2.8-2.1c-0.1-0.4,0-1,0.4-1.8
			c3.3-5.9,10.9-4.6,11.3-4.5c0.6,0.1,1.2-0.3,1.3-0.9s-0.3-1.2-0.9-1.3c-0.4-0.1-9.6-1.6-13.6,5.6c-0.7,1.3-0.9,2.4-0.6,3.4
			c0.5,1.6,2.1,2.5,3.8,3.5c2.9,1.5,5.8,3.2,4.6,8.5c-0.1,0.6,0.2,1.2,0.8,1.3C1260.3,521.4,1260.3,521.5,1260.4,521.5z"/>
		<path class="st11" d="M1404,553.9C1404.1,553.9,1404.1,553.9,1404,553.9c0.7,0,1.2-0.5,1.2-1.1c0-5.5,3.2-6.4,6.3-7.3
			c1.9-0.5,3.6-1,4.5-2.5c0.5-0.9,0.6-2.1,0.1-3.5c-2.4-8-11.7-8.4-12.1-8.4c-0.6,0-1.1,0.5-1.1,1s0.5,1.1,1.1,1.1
			c0.3,0,8.1,0.4,10,6.8c0.2,0.8,0.3,1.4,0,1.8c-0.4,0.7-1.7,1.1-3.2,1.5c-3.2,0.9-8,2.3-7.9,9.5
			C1403,553.4,1403.5,553.9,1404,553.9z"/>
		<path class="st6" d="M1341.9,639.1c0,0,69,33.2,74.5,126.1c6.2,104.2-14.8,224.6-57.5,327.4c-5.7,13.8-87.1,20.8-141.1,9
			c-69.9-15.2-170.3-62.9-191.1-88.6c-26.3-32.7,60.5-122.8,86.2-193.3c35.1-96.3,49-183.2,163.6-194.7
			C1276.5,624.9,1320.1,672.1,1341.9,639.1z"/>
		<path class="st11" d="M1327.5,555.9c3.9-0.6,8.1-1.8,12.4-4c0.5-0.3,0.8-0.9,0.5-1.5s-0.9-0.8-1.5-0.5c-15.6,8-30.5,1.9-30.6,1.9
			c-0.6-0.2-1.2,0-1.4,0.6c-0.2,0.6,0,1.2,0.6,1.4C1307.9,554.1,1316.4,557.5,1327.5,555.9z"/>
		<path class="st4" d="M1273,1106.3c-21.9,0-47-2.1-74.3-8.2c-92.4-20.4-172.1-83.3-172.9-84c-0.6-0.5-0.8-1.4-0.2-2.1
			s1.4-0.8,2.1-0.2c0.8,0.6,80,63.1,171.7,83.4c91.6,20.3,158.4-3.8,159-4c0.8-0.3,1.6,0.1,1.9,0.9s-0.1,1.6-0.9,1.9
			C1358.9,1094.1,1325.2,1106.3,1273,1106.3z"/>
		<path class="st11" d="M1320.8,542.3c0.4,0,0.8-0.2,1.1-0.6c0.3-0.5,0.1-1.2-0.5-1.5c-2.3-1.2-7-4.4-6.2-6.5c1-2.9,9-15,12-19.5
			c0.3-0.5,0.2-1.2-0.3-1.5s-1.2-0.2-1.5,0.3c-0.4,0.7-10.8,16.2-12.2,19.9c-1.6,4.4,6.3,8.7,7.3,9.2
			C1320.5,542.2,1320.6,542.3,1320.8,542.3z"/>
		<path class="st4" d="M841.7,1640.4c4.9,2.1,9.9,4.1,15.2,6.1c0.7,0.3,1.5-0.1,1.7-0.8c0.3-0.7-0.1-1.4-0.8-1.7
			c-82.8-30.6-118.7-82.7-119.1-83.2c-0.4-0.6-1.2-0.8-1.8-0.4c-0.6,0.4-0.8,1.2-0.4,1.8C736.8,1562.7,768.7,1609.1,841.7,1640.4z"
			/>
		<path class="st4" d="M1274.5,1723.8c21.8,0,44.4-2,63-8.1c0.7-0.2,1.1-1,0.8-1.7c-0.2-0.7-1-1.1-1.7-0.8
			c-54.7,17.9-144.9,0.2-145.8,0c-0.7-0.1-1.4,0.3-1.6,1c-0.1,0.7,0.3,1.4,1,1.6C1191,1715.9,1231.3,1723.8,1274.5,1723.8z"/>
		<path class="st5" d="M1646.3,1058.2c0,0,24.5,36.8,23.6,63.1c0,0-23.7,6.6-44.4,12.8c0,0-32.5-7.1-27.1-71.7
			C1599.9,1044.8,1620.9,1059.9,1646.3,1058.2z"/>
		<path class="st11" d="M1631,1076.1c-0.1,0.1-0.2,0.3-0.3,0.4c-2.9,7.8-9.2,12.8-9.2,12.8c-0.5,0.4-0.6,1.1-0.2,1.6
			c0.4,0.5,1.1,0.6,1.6,0.2c0.3-0.2,5.8-4.7,9.2-11.9c1.9,2.5,6.2,7.3,12.9,10.5c0.6,0.3,1.2,0,1.5-0.5c0.3-0.6,0-1.2-0.5-1.5
			c-8.7-4.1-13.1-11.3-13.2-11.3c-0.2-0.4-0.6-0.6-1.1-0.5C1631.4,1075.8,1631.2,1075.9,1631,1076.1z"/>
		<path class="st4" d="M1387.8,1013.7c0.7,0,1.3-0.4,1.4-1c31-132.1,14.5-235.9,14.3-236.9c-0.1-0.7-0.8-1.2-1.5-1.1
			s-1.2,0.8-1.1,1.5c0.2,1,16.6,104.3-14.3,235.8c-0.2,0.7,0.3,1.5,1,1.6C1387.7,1013.7,1387.7,1013.7,1387.8,1013.7z"/>
		<path class="st4" d="M1552.2,1101.2C1552.2,1101.2,1552.2,1101.2,1552.2,1101.2c0.8,0.2,1.5-0.2,1.7-1
			c15.2-61.4,53.6-85.2,53.9-85.4c0.6-0.4,0.8-1.2,0.5-1.8c-0.4-0.6-1.2-0.8-1.8-0.5c-0.4,0.2-39.7,24.5-55.2,87.1
			C1551.1,1100.3,1551.5,1101,1552.2,1101.2z"/>
		<path class="st4" d="M1459.7,942c0.3,0.1,0.5,0.1,0.8,0c17.3-5.8,30.1-0.8,30.3-0.7c0.7,0.3,1.5-0.1,1.8-0.7
			c0.3-0.7-0.1-1.5-0.7-1.8c-0.6-0.2-13.8-5.5-32.1,0.6c-0.7,0.2-1.1,1-0.8,1.7C1458.9,941.5,1459.3,941.8,1459.7,942z"/>
		<path class="st5" d="M1204.9,1049.8c11.7,1.3,70.5,15.8,64.1,32.4c-6,8.5-15.6-5.5-34.4-5.5c-12.9,0-32.3,10.5-36.3-6.8
			C1196.9,1062.1,1197,1048.8,1204.9,1049.8z"/>
		<path class="st4" d="M1164.2,1257.1c0.5,0,1.1-0.3,1.3-0.8c0.2-0.4,18.3-39,33.4-73.7c0.3-0.7,0-1.5-0.7-1.8
			c-0.7-0.3-1.5,0-1.8,0.7c-15,34.6-33.2,73.3-33.4,73.7c-0.3,0.7,0,1.5,0.6,1.8C1163.9,1257,1164,1257.1,1164.2,1257.1z"/>
		<path class="st4" d="M777.5,1600.9c0.4,0,0.8-0.1,1.1-0.4c1.4-1.5,136.3-149.2,185.1-229.8c48.9-80.6,114.6-319.8,115.2-322.2
			c0.2-0.7-0.2-1.5-0.9-1.7c-0.7-0.2-1.5,0.2-1.7,0.9c-0.7,2.4-66.3,241.2-114.9,321.5c-48.7,80.3-183.5,227.8-184.8,229.3
			c-0.5,0.6-0.5,1.4,0.1,1.9C776.9,1600.8,777.2,1600.9,777.5,1600.9z"/>
		<g>
			<path class="st12" d="M647.9,950.4c29.2,0,58.1,4.9,85.8,14.5c27.3,9.4,52.7,23.2,75.5,40.8c23.1,17.8,42.8,39.1,58.8,63.4
				c16.5,25.1,28.6,52.7,35.8,82.1c8.5,34.6,10,69.8,4.5,104.7c-5.4,33.7-17.1,65.6-34.8,95s-40.6,54.6-67.9,75
				c-28.3,21.1-60.2,36.2-94.8,44.7c-20.8,5.1-42.1,7.7-63.3,7.7c-29.2,0-58.1-4.9-85.8-14.4c-27.3-9.4-52.7-23.2-75.5-40.8
				c-23.1-17.8-42.8-39.2-58.8-63.4c-16.5-25.1-28.6-52.7-35.8-82.1c-8.5-34.6-10-69.8-4.5-104.7c5.4-33.7,17.1-65.6,34.9-95
				s40.6-54.6,67.9-75c28.3-21.1,60.1-36.2,94.7-44.7C605.4,953,626.7,950.4,647.9,950.4L647.9,950.4z M647.9,920.7
				c-23.2,0-46.9,2.8-70.4,8.6c-157.4,38.8-253.5,197.8-214.7,355.2c33,133.8,152.8,223.3,284.7,223.3c23.2,0,46.9-2.8,70.4-8.6
				c157.4-38.8,253.5-197.8,214.7-355.2C899.7,1010.3,779.8,920.7,647.9,920.7L647.9,920.7z"/>
			<path class="st12" d="M1604.1,1114.1c29.2,0,58.1,4.9,85.8,14.4c27.3,9.4,52.7,23.2,75.5,40.8c23.1,17.8,42.8,39.2,58.8,63.4
				c16.5,25.1,28.6,52.7,35.8,82.1c8.5,34.6,10,69.8,4.4,104.7c-5.4,33.7-17.1,65.6-34.8,95s-40.6,54.6-67.9,75
				c-28.3,21.1-60.2,36.2-94.8,44.7c-20.8,5.1-42.1,7.7-63.3,7.7c-29.2,0-58.1-4.9-85.8-14.4c-27.3-9.4-52.7-23.2-75.5-40.8
				c-23.1-17.8-42.8-39.2-58.8-63.4c-16.5-25.1-28.6-52.7-35.8-82.1c-8.5-34.6-10-69.8-4.4-104.7c5.4-33.7,17.1-65.6,34.8-95
				s40.6-54.6,67.9-75c28.3-21.1,60.2-36.2,94.8-44.7C1561.5,1116.7,1582.8,1114.1,1604.1,1114.1L1604.1,1114.1z M1604.1,1084.4
				c-23.2,0-46.9,2.8-70.4,8.6c-157.4,38.8-253.5,197.8-214.7,355.2c33,133.8,152.8,223.3,284.7,223.3c23.2,0,46.9-2.8,70.4-8.6
				c157.4-38.8,253.5-197.8,214.7-355.2C1855.8,1174,1736,1084.4,1604.1,1084.4L1604.1,1084.4z"/>
			<path class="st13" d="M658.4,1205.1c-3.8,0-7.5-1.4-10.4-4.3c-5.8-5.8-5.8-15.1-0.1-21l295-297.6c5.8-5.8,15.1-5.8,21-0.1
				c5.8,5.8,5.8,15.1,0.1,21l-295,297.6C666.1,1203.6,662.3,1205.1,658.4,1205.1z"/>
			<path class="st13" d="M1053.8,1307.9c-3.7,0-7.3-1.3-10.2-4c-5.9-5.6-6.2-15-0.6-20.9l392.9-416.5l-481.2,41
				c-8.2,0.7-15.3-5.3-16-13.5c-0.7-8.2,5.3-15.3,13.5-16l519.9-44.3c6.1-0.5,11.9,2.8,14.6,8.3c2.7,5.5,1.7,12.1-2.6,16.6
				l-419.6,444.7C1061.6,1306.3,1057.7,1307.9,1053.8,1307.9z"/>
			<path class="st13" d="M1015.3,1310.3c-7.2,0-13.5-5.3-14.6-12.6l-81-528c-1.2-8.1,4.3-15.7,12.4-16.9c8.1-1.2,15.7,4.3,16.9,12.4
				l81,528c1.2,8.1-4.3,15.7-12.4,16.9C1016.8,1310.2,1016,1310.3,1015.3,1310.3z"/>
			<ellipse class="st12" cx="1603.8" cy="1378" rx="47.2" ry="47.2"/>
			<circle class="st12" cx="647.7" cy="1214.3" r="47.2"/>
			<ellipse class="st12" cx="1019.2" cy="1333" rx="70.3" ry="70.3"/>
			<path class="st13" d="M1018.8,1348c-1.5,0-3-0.2-4.5-0.7l-371.5-118.7c-7.8-2.5-12.1-10.8-9.6-18.6c2.5-7.8,10.8-12.1,18.6-9.6
				l371.5,118.7c7.8,2.5,12.1,10.8,9.6,18.6C1030.9,1344,1025.1,1348,1018.8,1348z"/>
			<path class="st13" d="M1603.5,1392.9c-6.7,0-12.7-4.5-14.4-11.3l-158.3-644.5c-1.9-8,2.9-16,10.9-17.9s16,2.9,17.9,10.9
				l158.3,644.5c1.9,7.9-2.9,16-10.9,17.9C1605.8,1392.8,1604.6,1392.9,1603.5,1392.9z"/>
			<path class="st12" d="M1328.3,775.6c-6.7,0-12.8-4.6-14.4-11.5c-1.8-8,3.1-15.9,11.1-17.8l233.8-54.2c8-1.8,15.9,3.1,17.8,11.1
				c1.8,8-3.1,15.9-11.1,17.8l-233.8,54.2C1330.5,775.4,1329.4,775.6,1328.3,775.6z"/>
			<path class="st12" d="M998.8,785.8l-175-30l0.9-5.3c5.1-30,34.7-49.4,64.3-42l70.8,17.6C986.5,732.7,1003.5,758.7,998.8,785.8
				L998.8,785.8z"/>
			<path class="st13" d="M1099.4,1421.9c-3.6,0-7.2-1.3-10-3.9l-80.5-73.9c-6-5.5-6.4-14.9-0.9-20.9c5.5-6,14.9-6.4,20.9-0.9
				l80.6,73.9c6,5.5,6.4,14.9,0.9,20.9C1107.4,1420.3,1103.4,1421.9,1099.4,1421.9z"/>
			<path class="st12" d="M1138,1392.9l-49.6,53.7c-7,7.6-18.9,8.1-26.5,1.1l0,0c-7.6-7-8.1-18.9-1.1-26.5l49.6-53.7
				c7-7.6,18.9-8.1,26.5-1.1l0,0C1144.5,1373.5,1145,1385.3,1138,1392.9z"/>
		</g>
		<path class="st5" d="M1208.4,1057.3c0,0,43.3,15.1,58.8,36.3c0,0-25.6,14.7-27.9,35.4c0,0-30.4,15.3-66-38.8
			C1163.6,1075.4,1189.5,1074.4,1208.4,1057.3z"/>
		<path class="st5" d="M1243.2,1122c3.3,1.2,7-0.1,8.7-3.2c0.9-1.7,1.1-3.6,0.5-5.3c2.8,0.3,5.6-1,7-3.6c1-1.8,1.1-3.8,0.4-5.6
			c2.9,0.4,5.9-0.9,7.3-3.6c1.8-3.3,0.7-7.1-2-9.8c-3.1-3.1-11.2-8.3-17.1-9.4c-3.7-0.7-9.3,0.4-11.2,3.7c-1,1.8-1.1,3.8-0.4,5.6
			c-2.9-0.4-5.9,0.9-7.3,3.6l0,0c-0.9,1.7-1.1,3.6-0.5,5.3c-2.8-0.3-5.6,1-7,3.6c-0.7,1.3-0.9,2.8-0.8,4.1c-3.3-1.2-7,0.1-8.7,3.2
			c-1.8,3.3-0.6,7.4,2.8,9.2l18.1,9.2c3.4,1.7,7.6,0.4,9.5-2.9C1243.2,1124.8,1243.4,1123.3,1243.2,1122z"/>
		<path class="st11" d="M1260.8,1105.3c0.1-0.1,0.1-0.1,0.2-0.2c0.4-0.6,0.3-1.4-0.3-1.9c-0.1-0.1-6.3-4.6-11.7-8
			c-0.6-0.4-1.4-0.2-1.9,0.4c-0.4,0.6-0.2,1.5,0.4,1.9c5.3,3.4,11.5,7.9,11.6,8C1259.6,1105.8,1260.3,1105.7,1260.8,1105.3z"/>
		<path class="st11" d="M1253.4,1114.5c0.1-0.1,0.1-0.1,0.2-0.2c0.4-0.6,0.3-1.4-0.3-1.9l-12.3-8.8c-0.6-0.4-1.4-0.3-1.9,0.3
			c-0.4,0.6-0.3,1.4,0.3,1.9l12.3,8.8C1252.2,1115,1252.9,1114.9,1253.4,1114.5z"/>
		<path class="st11" d="M1244.1,1123c0.1-0.1,0.2-0.2,0.2-0.2c0.4-0.6,0.3-1.4-0.3-1.9l-12.6-8.8c-0.6-0.4-1.4-0.3-1.9,0.3
			c-0.4,0.6-0.3,1.4,0.3,1.9l12.6,8.8C1243,1123.4,1243.7,1123.4,1244.1,1123z"/>
		<path class="st5" d="M1612.7,1043.3c37.5-1,81.3,62.8,66.1,71.9c-10,3-8.9-13.9-23.7-25.5c-10.2-8-30.6-20-39.4-35.5
			C1611.7,1047.2,1600.8,1043.6,1612.7,1043.3z"/>
		<path class="st5" d="M1633.4,1130.5c2,2.8,5.9,3.8,9,2.2c1.7-0.9,2.9-2.4,3.4-4.1c2.1,1.8,5.3,2.3,7.8,0.9c1.8-0.9,3-2.6,3.4-4.4
			c2.1,2,5.4,2.5,8.1,1.1c3.4-1.7,4.5-5.6,3.8-9.3c-0.8-4.3-4.7-13.1-9-17.3c-2.7-2.7-8-4.9-11.4-3.2c-1.8,0.9-3,2.6-3.4,4.4
			c-2.1-2-5.4-2.5-8.1-1.1l0,0c-1.7,0.9-2.9,2.4-3.4,4.1c-2.1-1.8-5.2-2.3-7.8-0.9c-1.3,0.7-2.3,1.8-2.9,3c-2-2.8-5.9-3.8-9-2.2
			c-3.4,1.7-4.6,5.8-2.8,9.2l9.9,17.7c1.8,3.3,6.1,4.6,9.5,2.9C1631.8,1132.8,1632.8,1131.7,1633.4,1130.5z"/>
		<path class="st11" d="M1633.4,1131.7c-0.5,0-0.9-0.3-1.1-0.8l-10.5-24.5c-0.3-0.6,0-1.3,0.7-1.6s1.3,0,1.6,0.7l10.5,24.5
			c0.3,0.6,0,1.3-0.7,1.6C1633.7,1131.7,1633.6,1131.7,1633.4,1131.7z"/>
		<path class="st11" d="M1645.8,1129.9c-0.5,0-0.9-0.3-1.1-0.7l-12.1-24.7c-0.3-0.6,0-1.3,0.6-1.7s1.3-0.1,1.7,0.6l12.1,24.7
			c0.3,0.6,0,1.3-0.6,1.7C1646.2,1129.8,1646,1129.9,1645.8,1129.9z"/>
		<path class="st11" d="M1657.1,1126.4c-0.5,0-0.9-0.3-1.1-0.7l-11.9-24.2c-0.3-0.6-0.1-1.3,0.6-1.7c0.6-0.3,1.3-0.1,1.7,0.6
			l11.9,24.2c0.3,0.6,0.1,1.3-0.6,1.7C1657.5,1126.3,1657.3,1126.4,1657.1,1126.4z"/>
		<path class="st4" d="M1216.4,1024.1c0,0-21.4,42.1-73.6,66.2C1142.8,1090.3,1143.1,1035.1,1216.4,1024.1z"/>
		<path class="st5" d="M1010.8,904.6l0.3-1.5l154.8-213.8c0.1-0.4,11.4-28.8,11.5-29.2c5.2-20.3,14.6-4.6,34.9,0.6
			c20.3,5.2,32.5,25.8,27.3,46.1l-159.8,195.3l145.2,166.8c8.9,10.3,8.5,26-1.4,35.7c-10.3,10.1-26.8,9.9-36.8-0.4L1019,933.2
			C1012,926,1008.4,915.2,1010.8,904.6z"/>
		<path class="st6" d="M1276.8,625.4c0,0-57.3-40.5-185.7,64.2c-69,56.3-138.3,185.7-106.3,235.3c17.2,26.6,158,165.4,158,165.4
			s22.5-49.9,73.6-66.2L1108,890.7c0,0,78.2-90.8,103.6-123C1269.9,693.5,1276.8,625.4,1276.8,625.4z"/>
		<path class="st4" d="M1205.2,1009.9c0.4-0.3,0.6-0.9,0.4-1.4c-0.2-0.7-1-1.1-1.7-0.9c-54.1,16.6-75.9,66.8-76.1,67.3
			c-0.3,0.7,0,1.5,0.7,1.8c0.7,0.3,0.5,1,0.8,0.3c0.2-0.5,22.6-50.6,75.4-66.8C1204.8,1010.2,1205,1010.1,1205.2,1009.9z"/>
		<path class="st11" d="M1302.3,479.4c0.2,0.1,0.4,0.3,0.7,0.3c10.9,2.6,17.6,13.6,17.7,13.7c0.5,0.9,1.7,1.1,2.5,0.6
			c0.9-0.5,1.2-1.6,0.6-2.5c-0.3-0.5-7.6-12.4-20-15.4c-1-0.2-2,0.4-2.2,1.4C1301.4,478.2,1301.7,478.9,1302.3,479.4z"/>
		<path class="st11" d="M1368.9,493.5c0.5-0.3,0.8-0.7,0.9-1.3c0.2-1-0.5-1.9-1.5-2.1c-0.6-0.1-14-2.2-25.7,5.6
			c-0.8,0.6-1.1,1.7-0.5,2.5c0.6,0.8,1.7,1.1,2.6,0.5c10.4-6.9,23-5,23.1-5C1368.1,493.8,1368.6,493.7,1368.9,493.5z"/>
		<path class="st6" d="M1270.5,478.3c0,0,37.8,18.2,59.9,22.3c24.6,4.5,76.4,5.8,76.4,5.8l-2.9,16.8c0,0-44.8,13.2-86.3,1.8
			c-38.9-10.7-50.9-32.5-50.9-32.5S1267.6,483.2,1270.5,478.3z"/>
		<path class="st10" d="M1239.5,433.1c17.3-22.3,41.3-10.2,60.1-23.9c13.8-10.1,54.5-22.1,78.8-7.9c19.2,11.2,24.6,28.8,25.5,42.6
			c9.6,6.1,19.4,16.8,20.3,35.2c1.1,21.7-20.3,43.9-20.3,43.9s-19.8-11.2-25.5-34.9c-3-12.5-3.6-22.2-3-29.7
			c-10.6-2-22.5-3.8-31.6-3.8c-32.6,0.2-36.5,21.2-69.7,23.3C1235.6,480.6,1227.5,448.5,1239.5,433.1z"/>
		<path class="st12" d="M1344,516.7c-1.2,5.1-0.1,9.7,2.6,10.3c2.6,0.6,5.7-3,6.9-8.1c1.2-5.1,0.1-9.7-2.6-10.4
			C1348.3,507.9,1345.2,511.6,1344,516.7z"/>
		<path class="st12" d="M1302.7,507c-1.2,5.1-0.1,9.7,2.6,10.3c2.6,0.6,5.7-3,6.9-8.1s0.1-9.7-2.6-10.4S1303.9,501.9,1302.7,507z"/>
		<path class="st4" d="M1132.3,863.9c-0.3,0-0.7-0.1-1-0.4c-0.6-0.5-0.7-1.5-0.1-2.1c32.1-35.6,91.8-111.7,92.4-112.5
			c0.5-0.6,1.4-0.8,2.1-0.3c0.6,0.5,0.8,1.4,0.3,2.1c-0.6,0.8-60.4,77-92.5,112.6C1133.1,863.7,1132.7,863.9,1132.3,863.9z"/>
		<path class="st4" d="M1216.4,1025.6c-0.4,0-0.9-0.2-1.2-0.6l-105.1-129.5c-0.5-0.6-0.4-1.6,0.2-2.1c0.6-0.5,1.6-0.4,2.1,0.2
			l105.1,129.5c0.5,0.6,0.4,1.6-0.2,2.1C1217.1,1025.5,1216.7,1025.6,1216.4,1025.6z"/>
		<path class="st4" d="M1142.8,1091.8c-0.4,0-0.8-0.2-1.1-0.4l-115.3-116.9c-0.6-0.6-0.6-1.5,0-2.1c0.6-0.6,1.5-0.6,2.1,0
			l115.3,116.9c0.6,0.6,0.6,1.5,0,2.1C1143.5,1091.7,1143.2,1091.8,1142.8,1091.8z"/>
		<path class="st4" d="M1316.8,670.1C1316.8,670.1,1316.8,670.1,1316.8,670.1c33.8,2.8,41.3-24,41.4-24.3c0.2-0.7-0.2-1.5-0.9-1.6
			s-1.4,0.2-1.6,1c-0.3,1-7,24.8-38.5,22.3c0,0,0,0,0,0c-39.3-3.2-59.7-48.5-59.9-48.9c-0.3-0.7-1.1-1-1.8-0.7s-1,1.1-0.7,1.8
			C1254.8,620,1275.9,666.7,1316.8,670.1z"/>
	</g>
	<path id="_x31_" class="st12" d="M2187.3,1829.3H112.7c-1.6,0-3-1.3-3-3s1.3-3,3-3h2074.5c1.6,0,3,1.3,3,3
		S2188.9,1829.3,2187.3,1829.3z"/>
</g>
</svg>
