<?xml version="1.0" encoding="utf-8"?>
<!-- Generator: Adobe Illustrator 24.1.2, SVG Export Plug-In . SVG Version: 6.00 Build 0)  -->
<svg version="1.1" id="Layer_1" xmlns="http://www.w3.org/2000/svg" xmlns:xlink="http://www.w3.org/1999/xlink" x="0px" y="0px"
	 viewBox="0 0 1350 750" style="enable-background:new 0 0 1350 750;" xml:space="preserve">
<rect style="fill:#FFFFFF;" width="1350" height="750"/>
<g>
	<path style="opacity:0.42;fill:#A0C8EA;" d="M246.55,535.71c-52.04-35.07-104.45-105.58-84.06-151.9
		c19.69-44.72,107.49-67.44,209.41-32.44c-68.62-140.52-37.98-201.68-25.07-221.21c71.19-107.68,340.6-64.89,510.25,42.77
		c186.73,118.5,243.09,291.41,262.14,362.77c-128.95-24.76-228.5,30.52-300.48,34.95c-101.8,6.26-197.74-7.74-383.42-1.02
		C355.81,572.5,299.8,571.61,246.55,535.71z"/>
	<path style="fill:#EEF4F8;" d="M931.83,447.05c3.75-16.4,7.58-42.7,1.97-73.74c-2.94-16.27-12.56-69.47-38.34-72.76
		c-16.86-2.15-36.08,17.61-49.16,44.24c4.54-13.9,18.56-62.64-4.92-112.08c-29.1-61.29-101.78-94.13-169.11-81.6
		c-65.53,12.19-117.38,65.75-128.8,133.71c-19.26-16.12-36.49-21.05-48.18-22.61c-56.71-7.6-122.17,45.32-158.29,133.71
		c-6.88,17.04-13.76,34.08-20.65,51.13C521.51,447.05,726.67,447.05,931.83,447.05z"/>
	<path style="fill:#885C65;" d="M47.55,556.25c1.84-7.12,53.75,2.2,109.13,7.37c94.63,8.83,156.19,1.51,240.38-4.42
		c54.49-3.84,205.92-6,508.78-10.32c87.69-1.25,184.91-2.29,311.16,0c49.37,0.89,90.2,2.06,117.98,2.95
		c-98.31,18.68-196.63,37.36-294.94,56.04C658.9,672.28,466.2,694.9,461.94,675.7c-1.26-5.68,13.98-15.02,45.72-28.02
		c-324.23,33.2-488.42,38.12-492.55,14.75c-2.21-12.52,41.54-33.17,131.25-61.94C100.17,584.32,45.62,563.72,47.55,556.25z"/>
	<path style="fill:#B4B4B5;" d="M704.42,450.04c4.85,0.49,8.6,15.66,8.69,13.29c1.31-33.4,3.82-41.76,6.14-41.92
		c3.29-0.23,8.22,15.83,9.71,29.14c0.55,4.91,0.6,9.11,0.51,12.27c2.26-6.47,5.37-15.21,9.2-25.56c3.91-10.55,5.26-13.81,7.16-13.8
		c3.71,0.01,7.23,12.43,7.67,22.5c0.31,7.12-0.93,12.99-2.05,16.87c2.15-9.06,5.61-22.61,10.74-38.86
		c9.56-30.29,14.94-47.31,20.96-47.04c6.51,0.3,13.3,20.83,10.23,38.86c-1.6,9.4-5.61,16.52-8.69,20.96
		c3.58,5.79-0.74,15.41,2.84,21.2c-0.69-19.19,10.23-37.67,13.01-47.28c2.14-7.4,6.07-20.99,11.25-20.96
		c4.68,0.03,8.09,11.18,9.2,14.83c2.17,7.1,4.68,20.25-0.51,38.35c4.6,3.92,9.2,7.84,13.8,11.76c-3.59-10.41-7.67-26.83-5.62-46.53
		c1.66-15.98,7.8-38.45,14.32-38.35c6.63,0.1,12.31,23.55,13.29,40.9c1.09,19.2-3.36,34.96-7.16,44.99c2.73-1.7,5.45-3.41,8.18-5.11
		c-0.37-1.08-6.2-18.77,5.11-32.21c5.95-7.06,17.49-13.99,27.1-10.23c12.23,4.79,13.86,23.99,11.76,35.28
		c-2.57,13.8-11.91,22.23-15.34,25.05c6.65-0.68,13.29-1.36,19.94-2.05c-11.61-24.02-10.18-47.83,2.05-58.29
		c4.64-3.97,11.83-6.87,19.43-6.65c10.33,0.31,20.03,6.35,25.05,15.34c4.2,7.51,3.88,14.86,3.58,17.89c0.34-0.29,4.73-3.96,9.2-2.56
		c4.65,1.46,7.91,7.95,5.62,14.83c0.54-2.09,3.68-13.67,12.27-16.36c11.02-3.45,24.26,9.81,28.12,22.5c2.33,7.65,1.07,14.53,0,18.41
		c1.79-7.94,8.14-34.45,15.85-34.26c5.69,0.14,10.7,14.79,11.25,26.08c0.69,14.17-5.56,24.97-8.69,29.65
		c-109.92-1.02-219.85-2.05-329.77-3.07C697.77,481.4,700.45,449.64,704.42,450.04z"/>
	<path style="fill:#959353;" d="M198.41,441.51c9.47,0.96,16.77,30.55,16.96,25.93c2.55-65.15,7.44-81.46,11.97-81.79
		c6.41-0.46,16.03,30.88,18.95,56.85c1.08,9.57,1.17,17.78,1,23.94c4.41-12.62,10.47-29.67,17.95-49.87
		c7.63-20.58,10.25-26.94,13.96-26.93c7.23,0.03,14.11,24.25,14.96,43.89c0.6,13.89-1.81,25.35-3.99,32.91
		c4.19-17.67,10.94-44.11,20.95-75.8c18.66-59.09,29.14-92.3,40.89-91.76c12.71,0.58,25.95,40.63,19.95,75.8
		c-3.13,18.33-10.95,32.22-16.96,40.89c6.98,11.3-1.44,30.06,5.54,41.36c-1.35-37.44,19.96-73.49,25.38-92.23
		c4.18-14.43,11.85-40.95,21.94-40.89c9.13,0.05,15.78,21.82,17.95,28.92c4.23,13.85,9.14,39.51-1,74.8
		c8.98,7.65,17.95,15.29,26.93,22.94c-7.01-20.32-14.97-52.33-10.97-90.76c3.24-31.17,15.22-75,27.93-74.8
		c12.93,0.2,24.02,45.95,25.93,79.79c2.12,37.45-6.56,68.2-13.96,87.77c5.32-3.32,10.64-6.65,15.96-9.97
		c-0.73-2.1-12.09-36.62,9.97-62.84c11.6-13.78,34.13-27.29,52.86-19.95c23.86,9.35,27.03,46.81,22.94,68.82
		c-5,26.93-23.23,43.38-29.92,48.87c12.97-1.33,25.93-2.66,38.9-3.99c-22.66-46.86-19.87-93.3,3.99-113.7
		c9.05-7.74,23.08-13.4,37.9-12.97c20.16,0.6,39.08,12.39,48.87,29.92c8.19,14.66,7.58,28.99,6.98,34.91
		c0.67-0.57,9.23-7.73,17.95-4.99c9.07,2.86,15.42,15.5,10.97,28.92c1.05-4.09,7.18-26.66,23.94-31.92
		c21.49-6.74,47.33,19.13,54.86,43.89c4.54,14.93,2.08,28.35,0,35.91c3.49-15.49,15.88-67.21,30.92-66.83
		c11.1,0.28,20.87,28.84,21.94,50.87c1.35,27.65-10.84,48.72-16.96,57.85c-214.44-1.99-428.88-3.99-643.32-5.98
		C185.45,502.68,190.66,440.72,198.41,441.51z"/>
	<path style="fill:#777542;" d="M212.18,454.35c9.47,0.96,16.78,30.55,16.96,25.93c2.55-65.15,7.44-81.46,11.97-81.79
		c6.41-0.46,16.03,30.88,18.95,56.85c1.08,9.57,1.17,17.78,1,23.94c4.41-12.62,10.47-29.67,17.95-49.87
		c7.63-20.58,10.25-26.94,13.96-26.93c7.23,0.03,14.11,24.25,14.96,43.89c0.6,13.89-1.81,25.35-3.99,32.91
		c4.19-17.67,10.94-44.11,20.95-75.8c18.66-59.09,29.14-92.3,40.89-91.76c12.71,0.58,25.95,40.63,19.95,75.8
		c-3.13,18.33-10.95,32.22-16.96,40.89c6.98,11.3-1.44,30.06,5.54,41.36c-1.35-37.44,19.96-73.49,25.38-92.23
		c4.18-14.43,11.85-40.95,21.94-40.89c9.13,0.05,15.78,21.82,17.95,28.92c4.23,13.85,9.14,39.51-1,74.8
		c8.98,7.65,17.95,15.29,26.93,22.94c-7.01-20.32-14.97-52.33-10.97-90.76c3.24-31.17,15.22-75,27.93-74.8
		c12.93,0.2,24.02,45.95,25.93,79.79c2.12,37.45-6.56,68.2-13.96,87.77c5.32-3.32,10.64-6.65,15.96-9.97
		c-0.73-2.1-12.09-36.62,9.97-62.84c11.6-13.78,34.13-27.29,52.86-19.95c23.86,9.35,27.03,46.81,22.94,68.82
		c-5,26.93-23.23,43.38-29.92,48.87c12.97-1.33,25.93-2.66,38.9-3.99c-22.66-46.86-19.87-93.3,3.99-113.7
		c9.05-7.74,23.08-13.4,37.9-12.97c20.16,0.6,39.08,12.39,48.87,29.92c8.19,14.66,7.58,28.99,6.98,34.91
		c0.67-0.57,9.23-7.73,17.95-4.99c9.07,2.86,15.42,15.5,10.97,28.92c1.05-4.09,7.18-26.66,23.94-31.92
		c21.49-6.74,47.33,19.13,54.86,43.89c4.54,14.93,2.08,28.35,0,35.91c3.49-15.49,15.88-67.21,30.92-66.83
		c11.1,0.28,20.87,28.84,21.94,50.87c1.35,27.65-10.84,48.72-16.96,57.85c-214.44-1.99-428.88-3.99-643.32-5.98
		C199.21,515.53,204.42,453.56,212.18,454.35z"/>
	<path style="fill:#C0B95D;" d="M170.78,503.64c3.26-11.58,46.41-13.87,91.11-12.81c59.97,1.42,119.94-2.51,179.92-2.95
		c33.27-0.24,62.48-0.61,86.52-0.98c16.81-5.02,40.7-11.24,69.81-15.73c51.73-7.99,91.24-6.1,131.75-3.93
		c37.9,2.02,87.97,6.87,146.5,18.68c16.12-2.3,39.12-4.94,66.86-5.9c28.36-0.98,51.15,0.15,87.5,2.95
		c34.01,2.62,78.66,6.59,131.75,12.78c-23.11,4.07-39.34,8.69-39.33,13.76c0.03,14.51,132.95,21.05,132.73,29.5
		c-0.24,9.48-168.01,12.62-233.02,13.76c-233.99,4.11-350.98,6.16-398.19,6.88c-211.46,3.21-508.88,13.94-509.29,5.9
		c-0.21-4.19,80.51-8.19,83.57-31.46C200.84,519.9,167.87,514,170.78,503.64z"/>
	<path style="fill:#C0B95D;" d="M178.16,502.29c22.1,0.76,54.8,1.34,94.39,0c58.65-1.99,82.15-6.01,136.66-10.82
		c70.16-6.19,187.25-10.36,188.77,0.98c0.82,6.1-31.96,15.16-52.11,20.65c-58.14,15.84-149.27,33.44-275.29,30.48
		c153.89-21.39,230.58-34.5,230.07-39.33C500.14,499.5,210.28,506.22,178.16,502.29z"/>
	<g>
		<ellipse style="fill:#8D8A34;" cx="835.12" cy="530.24" rx="28.84" ry="3.57"/>
		<path style="fill:#8D8A34;" d="M902.63,527.42c0,1.56-3.11,2.82-6.95,2.82s-6.95-1.26-6.95-2.82c0-1.56,3.11-2.82,6.95-2.82
			S902.63,525.86,902.63,527.42z"/>
		<path style="fill:#8D8A34;" d="M906.57,542.16c0,1.68-6.9,3.05-15.4,3.05s-15.4-1.36-15.4-3.05c0-1.68,6.9-3.05,15.4-3.05
			S906.57,540.48,906.57,542.16z"/>
	</g>
	<path style="fill:#8D8A34;" d="M706.99,559.49c-1.41-1.35-6.38-6.44-6.34-13.84c0.02-3.92,1.46-9.54,3.95-9.91
		c3.84-0.57,8.37,11.55,9,13.27c0.06,2.82,0.13,5.65,0.19,8.47c-0.29-7.49-0.35-21.58,3.86-22.63c3.31-0.83,9.84,6.27,9.82,13.99
		c-0.01,4.4-2.15,7.66-3.24,9.09c1.31-1.16,6.44-5.45,14.27-5.6c8.3-0.16,13.79,4.44,15.03,5.53c-5.4-16.82-4.96-21.9-3.1-22.93
		c2.29-1.26,7.68,3.08,10.17,7.79c3.67,6.94,0.7,14,0.25,15.02c0.01-4.02,0.65-12.97,7.14-19.77c3.12-3.27,7.77-6.22,8.9-5.23
		c1.16,1.01-2.01,5.61-6.28,15.47c-2.15,4.98-3.66,9.15-4.59,11.88C746.36,559.9,726.67,559.69,706.99,559.49z"/>
	<g>
		<path style="opacity:0.61;fill:#3E102A;" d="M1046.7,604.7c0,5.64-93.06,10.22-207.86,10.22c-72.67,0-136.63-1.83-173.79-4.6
			c-37.15,2.77-101.12,4.6-173.81,4.6c-114.8,0-207.86-4.57-207.86-10.22s93.06-10.22,207.86-10.22c72.69,0,136.65,1.83,173.81,4.6
			c37.15-2.77,101.12-4.6,173.79-4.6C953.64,594.48,1046.7,599.05,1046.7,604.7z"/>
		<g>
			<path d="M456.45,481.27c0.07,0.76,7.48-0.36,16.92,0.86c4.51,0.59,18.76,2.62,32.39,13.11c11.78,9.07,17.51,20.15,20.07,26.22
				c-0.48-2.65-0.96-5.31-1.44-7.96c-2.51-5.71-7.22-14.14-15.88-21.56c-4.81-4.12-17.07-13.28-33.63-13.87
				C465.14,477.73,456.37,480.44,456.45,481.27z"/>
			<path d="M676.84,488.77c-0.24,0.72-7.21-2.02-16.69-2.93c-4.53-0.43-18.87-1.63-34.49,5.56c-13.51,6.22-21.56,15.74-25.41,21.08
				c1.06-2.48,2.12-4.96,3.18-7.44c3.72-5,10.19-12.17,20.28-17.48c5.6-2.94,19.6-9.14,35.88-6.02
				C669.16,483.39,677.1,487.98,676.84,488.77z"/>
			<path d="M814.36,478.11c0.07,0.76,7.48-0.36,16.92,0.86c4.51,0.59,18.76,2.62,32.39,13.11c11.78,9.07,17.51,20.15,20.07,26.22
				c-0.48-2.65-0.96-5.31-1.44-7.96c-2.51-5.71-7.22-14.14-15.88-21.56c-4.81-4.12-17.07-13.28-33.63-13.87
				C823.04,474.57,814.28,477.28,814.36,478.11z"/>
			<path d="M1034.75,485.61c-0.24,0.72-7.21-2.02-16.69-2.93c-4.53-0.43-18.87-1.63-34.49,5.56c-13.51,6.22-21.56,15.74-25.41,21.08
				c1.06-2.48,2.12-4.96,3.18-7.44c3.72-5,10.19-12.17,20.28-17.48c5.6-2.94,19.6-9.14,35.88-6.02
				C1027.07,480.22,1035.01,484.82,1034.75,485.61z"/>
			<path style="fill:#242426;" d="M543.12,420.42c0.76,1.31,1.04,2.56,1.72,6.98c2.18,14.2,2.73,22.98,2.73,22.98
				c1.08,16.98,1.61,25.93,0.8,38.8c-0.25,4.01-0.54,6.88-0.64,7.93c-1.17,12.29-1.67,34.27,0.54,76.28
				c-1.2-0.01-2.41-0.02-3.61-0.03c-4.15-19.86-9.24-34.09-13.31-43.72c-2.34-5.54-5.69-12.73-5.07-22.4
				c0.34-5.25,2.72-12.57,6.57-19.35c1.1-1.93,2.13-3.46,2.9-4.54c-8.2-12.01-13.12-22.93-16.06-30.66
				c-5.06-13.29-5.69-20.89-5.67-26.05c0.02-4.29,0.51-7.84,0.94-10.27C520.96,415.03,538.14,411.77,543.12,420.42z"/>
			<path style="fill:#1F1E2F;" d="M543.52,578.77c0.49-1.35,0.97-2.69,1.46-4.04c1.19,0.23,2.37,0.45,3.56,0.68
				c0.32,1.65,1,2.51,1.56,2.99c1.49,1.29,3.59,1.12,4.3,2.7c0.12,0.27,0.17,0.52,0.19,0.66c-1.85-0.07-3.39-0.32-4.52-0.55
				c-0.58-0.12-1.48-0.31-2.62-0.69C545.77,579.96,544.45,579.3,543.52,578.77z"/>
			<g>
				<path style="fill:#333333;" d="M547.09,581.17l-0.86-19.83c-0.04-0.81,0.6-1.5,1.41-1.54l0,0c0.81-0.03,1.5,0.6,1.54,1.41
					l0.86,19.83c0.04,0.81-0.6,1.5-1.41,1.54l0,0C547.81,582.61,547.12,581.98,547.09,581.17z"/>
				<path style="fill:#302121;" d="M539.75,581.58c0.82,1.15,1.64,2.29,2.46,3.44c4.53-0.08,9.07-0.16,13.6-0.25
					c0.79-1.31,1.58-2.62,2.38-3.93C552.04,581.08,545.9,581.33,539.75,581.58z"/>
				<g>
					<path style="fill:#FFFFFF;" d="M511.92,444.28c12.02,38.78,24.03,77.26,36.05,116.04L511.92,444.28z"/>
					<path style="fill:#F0EA56;" d="M545.15,561.19c-5.99-19.34-11.99-38.6-17.98-57.87c-6.02-19.36-12.05-38.73-18.07-58.17
						l5.64-1.75c6.02,19.44,12.05,38.8,18.07,58.16c5.99,19.27,11.99,38.53,17.98,57.88L545.15,561.19z"/>
				</g>
				<g>
					<path style="fill:#FFFFFF;" d="M524.04,481.31c32.45-3.93,64.89-7.87,97.34-11.8L524.04,481.31z"/>
					<polygon style="fill:#F0EA56;" points="621.73,472.44 616.3,473.63 613.84,474.17 536.54,491.09 529.22,492.68 528.16,492.92 
						527.26,489.99 526.68,488.11 523.69,478.38 621.02,466.58 					"/>
				</g>
				<g>
					<path style="fill:#FFFFFF;" d="M624.33,477.38c-25.56,27.53-51.13,55.06-76.69,82.59L624.33,477.38z"/>
					
						<rect x="529.63" y="515.72" transform="matrix(0.6804 -0.7328 0.7328 0.6804 -192.8256 595.1791)" style="fill:#F0EA56;" width="112.7" height="5.9"/>
				</g>
				<g>
					<path d="M469.14,612.25c-33.61,0-60.96-27.35-60.96-60.96s27.35-60.96,60.96-60.96c33.61,0,60.96,27.35,60.96,60.96
						S502.75,612.25,469.14,612.25z M469.14,495.25c-30.9,0-56.05,25.14-56.05,56.05c0,30.9,25.14,56.05,56.05,56.05
						c30.9,0,56.05-25.14,56.05-56.05C525.18,520.39,500.04,495.25,469.14,495.25z"/>
					<path style="fill:#CDCDCD;" d="M469.14,607.74c-31.12,0-56.45-25.32-56.45-56.45s25.32-56.45,56.45-56.45
						s56.45,25.32,56.45,56.45S500.26,607.74,469.14,607.74z M469.14,501.73c-27.33,0-49.56,22.23-49.56,49.56
						s22.23,49.56,49.56,49.56c27.33,0,49.56-22.23,49.56-49.56S496.47,501.73,469.14,501.73z"/>
					<rect x="466.36" y="499.01" style="fill:#CDCDCD;" width="1.97" height="106.52"/>
					<rect x="415.22" y="548.25" style="fill:#CDCDCD;" width="107.84" height="1.97"/>
					
						<rect x="413.59" y="548.87" transform="matrix(0.7071 -0.7071 0.7071 0.7071 -252.0368 491.2449)" style="fill:#CDCDCD;" width="106.75" height="1.97"/>
					
						<rect x="468" y="498.74" transform="matrix(0.7071 -0.7071 0.7071 0.7071 -252.3372 493.0421)" style="fill:#CDCDCD;" width="1.97" height="104.75"/>
					<circle style="fill:#E8E7E7;" cx="466.97" cy="549.23" r="7.78"/>
				</g>
				<g>
					<path d="M650.87,611.42c-33.61,0-60.96-27.35-60.96-60.96c0-33.61,27.35-60.96,60.96-60.96c33.61,0,60.96,27.35,60.96,60.96
						C711.84,584.08,684.49,611.42,650.87,611.42z M650.87,494.42c-30.9,0-56.04,25.14-56.04,56.05c0,30.9,25.14,56.04,56.04,56.04
						c30.9,0,56.05-25.14,56.05-56.04C706.92,519.56,681.78,494.42,650.87,494.42z"/>
					<path style="fill:#CDCDCD;" d="M650.87,606.91c-31.12,0-56.45-25.32-56.45-56.45c0-31.12,25.32-56.45,56.45-56.45
						c31.12,0,56.45,25.32,56.45,56.45C707.32,581.59,682,606.91,650.87,606.91z M650.87,500.9c-27.33,0-49.56,22.23-49.56,49.56
						c0,27.33,22.23,49.56,49.56,49.56s49.56-22.23,49.56-49.56C700.44,523.13,678.2,500.9,650.87,500.9z"/>
					<rect x="648.1" y="498.18" style="fill:#CDCDCD;" width="1.97" height="106.52"/>
					<rect x="596.96" y="547.42" style="fill:#CDCDCD;" width="107.83" height="1.97"/>
					
						<rect x="595.33" y="548.04" transform="matrix(0.7071 -0.7071 0.7071 0.7071 -198.2194 619.5097)" style="fill:#CDCDCD;" width="106.75" height="1.97"/>
					
						<rect x="649.74" y="497.91" transform="matrix(0.7071 -0.7071 0.7071 0.7071 -198.5195 621.3063)" style="fill:#CDCDCD;" width="1.97" height="104.75"/>
					
						<ellipse transform="matrix(0.9239 -0.3827 0.3827 0.9239 -160.4844 289.9924)" style="fill:#868686;" cx="648.7" cy="548.4" rx="7.78" ry="7.78"/>
				</g>
				<g>
					<path d="M602.58,440.9L602.58,440.9c-0.13-1.44,0.64-2.75,1.73-2.91c7.22-1.06,14.53-1.51,21.78-1.34
						c4.1,0.1,8.23,0.4,12.33,0.9c1.09,0.13,1.88,1.43,1.77,2.86l0,0c-0.11,1.42-1.07,2.44-2.14,2.31
						c-3.99-0.48-8.03-0.78-12.03-0.87c-7.08-0.18-14.22,0.27-21.26,1.31C603.68,443.32,602.71,442.32,602.58,440.9z"/>
				</g>
				<path style="fill:#868686;" d="M560.58,561.62c0.84,0.69,1.69,1.36,2.53,2.04c-0.22,0.97-0.53,1.92-0.93,2.81
					c-1.01-0.23-2.02-0.45-3.03-0.68c-0.38,0.39-0.77,0.79-1.15,1.18c0.45,1.27,0.91,2.54,1.37,3.81c-0.49,0.52-1.01,1.02-1.56,1.48
					c-0.99-0.49-2-0.98-3-1.47c-0.49,0.19-0.98,0.38-1.47,0.57c-0.1,1.21-0.21,2.42-0.3,3.63c-0.84,0.29-1.7,0.53-2.6,0.68
					c-0.59-1.04-1.18-2.07-1.77-3.12l-2.01-0.21c-0.51,1.12-1.02,2.23-1.53,3.35c-1.05-0.16-2.05-0.43-3.02-0.8v-3.45
					c-0.57-0.41-1.14-0.83-1.71-1.23c-1.22,0.44-2.42,0.88-3.63,1.33c-0.78-0.74-1.48-1.55-2.09-2.44c0.55-0.89,1.1-1.8,1.66-2.7
					c-0.22-0.77-0.43-1.52-0.66-2.29c-0.47-0.03-0.94-0.05-1.42-0.08c-0.65-0.03-1.3-0.07-1.95-0.11c-0.21-0.82-0.35-1.66-0.42-2.53
					c1.03-0.59,2.05-1.17,3.1-1.75c0.13-0.74,0.27-1.47,0.4-2.21c-0.97-0.58-1.97-1.17-2.94-1.75c0.27-0.97,0.64-1.91,1.09-2.79
					c1.21,0.03,2.4,0.05,3.61,0.08c0.45-0.61,0.9-1.21,1.36-1.81c-0.36-1.06-0.72-2.12-1.08-3.19c0.73-0.64,1.52-1.19,2.36-1.67
					c0.75,0.54,1.49,1.08,2.24,1.62c0.62-0.21,1.23-0.41,1.85-0.62c0.09-0.89,0.18-1.8,0.28-2.7c1.03-0.25,2.1-0.37,3.21-0.39
					c0.46,0.85,0.92,1.68,1.4,2.53c0.6,0.08,1.2,0.17,1.8,0.25c0.58-0.7,1.17-1.4,1.77-2.09c0.88,0.27,1.72,0.61,2.53,1.02
					c-0.05,0.87-0.1,1.73-0.16,2.59c0.56,0.44,1.12,0.88,1.67,1.32c0.83-0.35,1.65-0.7,2.47-1.04c0.66,0.66,1.27,1.38,1.8,2.13
					c-0.09,0.17-0.18,0.32-0.28,0.49c-0.29,0.54-0.58,1.08-0.87,1.61l0.74,2.01c0.88,0.13,1.76,0.26,2.63,0.4
					c0.26,0.82,0.43,1.66,0.54,2.54c-0.83,0.5-1.65,0.98-2.48,1.48C560.8,560.17,560.69,560.9,560.58,561.62z"/>
				<path style="opacity:0.58;fill:#868686;" d="M560.62,550.92c-0.09,0.17-0.18,0.32-0.28,0.49c-5.28-1.85-10.79-1.83-15.42,0.36
					c-5.21,2.47-8.16,7.17-8.68,8.03c-0.89,1.46-1.53,2.9-2,4.24c-0.65-0.03-1.3-0.07-1.95-0.11c-0.21-0.82-0.35-1.66-0.42-2.53
					c1.03-0.59,2.05-1.17,3.1-1.75c0.13-0.74,0.27-1.47,0.4-2.21c-0.97-0.58-1.97-1.17-2.94-1.75c0.27-0.97,0.64-1.91,1.09-2.79
					c1.21,0.03,2.4,0.05,3.61,0.08c0.45-0.61,0.9-1.21,1.36-1.81c-0.36-1.06-0.72-2.12-1.08-3.19c0.73-0.64,1.52-1.19,2.36-1.67
					c0.75,0.54,1.49,1.08,2.24,1.62c0.62-0.21,1.23-0.41,1.85-0.62c0.09-0.89,0.18-1.8,0.28-2.7c1.03-0.25,2.1-0.37,3.21-0.39
					c0.46,0.85,0.92,1.68,1.4,2.53c0.6,0.08,1.2,0.17,1.8,0.25c0.58-0.7,1.17-1.4,1.77-2.09c0.88,0.27,1.72,0.61,2.53,1.02
					c-0.05,0.87-0.1,1.73-0.16,2.59c0.56,0.44,1.12,0.88,1.67,1.32c0.83-0.35,1.65-0.7,2.47-1.04
					C559.48,549.44,560.09,550.16,560.62,550.92z"/>
				<path style="fill:#595A5A;" d="M475.73,550.93c0.54,0.45,1.09,0.88,1.64,1.32c-0.14,0.63-0.34,1.24-0.6,1.82
					c-0.66-0.15-1.3-0.29-1.96-0.44c-0.25,0.25-0.5,0.51-0.74,0.76c0.29,0.82,0.59,1.64,0.88,2.46c-0.32,0.34-0.66,0.66-1.01,0.96
					c-0.64-0.32-1.29-0.64-1.94-0.95c-0.32,0.12-0.64,0.25-0.95,0.37c-0.06,0.78-0.13,1.57-0.2,2.35c-0.54,0.19-1.1,0.34-1.68,0.44
					c-0.38-0.67-0.76-1.34-1.15-2.02c-0.43-0.04-0.87-0.09-1.3-0.13c-0.33,0.73-0.66,1.44-0.99,2.17c-0.68-0.1-1.33-0.28-1.95-0.52
					v-2.23c-0.37-0.27-0.74-0.53-1.11-0.8c-0.79,0.29-1.57,0.57-2.35,0.86c-0.5-0.48-0.96-1.01-1.36-1.58
					c0.36-0.58,0.71-1.16,1.08-1.75c-0.14-0.5-0.28-0.99-0.43-1.48c-0.73-0.04-1.45-0.08-2.18-0.12c-0.13-0.53-0.23-1.08-0.27-1.64
					c0.67-0.38,1.33-0.76,2-1.13c0.08-0.48,0.17-0.95,0.26-1.43c-0.63-0.38-1.27-0.76-1.9-1.13c0.17-0.63,0.41-1.23,0.71-1.81
					c0.78,0.02,1.55,0.03,2.34,0.05c0.29-0.39,0.59-0.78,0.88-1.17c-0.24-0.69-0.46-1.37-0.7-2.06c0.47-0.41,0.99-0.77,1.53-1.08
					c0.48,0.35,0.97,0.7,1.45,1.05c0.4-0.13,0.8-0.27,1.2-0.4c0.06-0.58,0.11-1.16,0.18-1.75c0.67-0.16,1.36-0.24,2.07-0.25
					c0.3,0.55,0.6,1.09,0.9,1.64c0.39,0.05,0.78,0.11,1.16,0.16c0.38-0.45,0.76-0.9,1.15-1.36c0.57,0.17,1.11,0.39,1.64,0.66
					c-0.03,0.56-0.06,1.12-0.1,1.67c0.36,0.29,0.73,0.57,1.08,0.85c0.53-0.23,1.07-0.45,1.6-0.67c0.43,0.43,0.82,0.89,1.16,1.38
					c-0.25,0.45-0.5,0.91-0.74,1.36c0.16,0.43,0.32,0.87,0.48,1.3c0.57,0.08,1.14,0.17,1.71,0.26c0.17,0.53,0.28,1.08,0.35,1.64
					c-0.53,0.32-1.07,0.64-1.6,0.96C475.87,549.99,475.8,550.46,475.73,550.93z"/>
				<path style="fill:#6A607C;" d="M545.67,450.18c-1.71,3.53-11.09-0.81-23.6,0.65c-12,1.41-20.72,7.44-22.61,4.76
					c-0.34-0.5-0.26-1-0.18-2.22c0.06-1.04,0.1-2.61-0.15-5.15c-0.2-2.04-0.42-2.98-0.98-3.93c-1.18-2.02,5.02-4.91,5.41-4.92
					c12.73-0.41,24.17-0.46,34.9,2.46c1.62,0.44,4.31,1.24,5.94,3.23c0.3,0.35,0.56,0.75,0.78,1.19
					C545.38,446.65,546.39,448.7,545.67,450.18z"/>
				<path style="opacity:0.5;fill:#3C344C;" d="M544.28,447.31c-1.72,3.54-11.1-0.81-23.6,0.66c-10.3,1.2-18.18,5.81-21.4,5.4
					c0.06-1.04,0.1-2.61-0.15-5.15c-0.2-2.04-0.42-2.98-0.98-3.93c-1.18-2.02,5.02-4.91,5.41-4.92c12.73-0.41,24.17-0.46,34.9,2.46
					c1.62,0.44,4.31,1.24,5.94,3.23C544.57,445.77,544.62,446.61,544.28,447.31z"/>
				<g>
					<path style="fill:#FFFFFF;" d="M613.03,440.79c12.02,36.04,24.03,72.08,36.05,108.11L613.03,440.79z"/>
					<path style="fill:#F0EA56;" d="M646.54,547.6l-34.65-103.92c-0.39-1.16,0.12-2.46,1.14-2.9l0,0c1.01-0.44,2.15,0.14,2.54,1.3
						l34.65,103.92c0.39,1.16-0.12,2.46-1.14,2.9l0,0C648.06,549.34,646.93,548.76,646.54,547.6z"/>
				</g>
				<g>
					<path style="fill:#FFFFFF;" d="M468.33,550.13c18.35-22.72,36.71-45.45,55.06-68.17L468.33,550.13z"/>
					<path style="fill:#F0EA56;" d="M468.33,550.13L468.33,550.13c-0.84-0.68-0.98-1.92-0.29-2.77l52.59-65.11
						c0.68-0.84,1.92-0.98,2.77-0.29l0,0c0.84,0.68,0.98,1.92,0.29,2.77l-52.59,65.11C470.41,550.68,469.17,550.82,468.33,550.13z"
						/>
				</g>
				<g>
					<path style="fill:#FFFFFF;" d="M548.97,560.83c-26.15-3.72-54.81-7.5-80.95-11.22L548.97,560.83z"/>
					<path style="fill:#F0EA56;" d="M548.97,560.83c-0.15,1.07-1.14,1.82-2.22,1.67c-12.5-1.77-25.72-3.58-38.53-5.33
						c-12.81-1.75-26.04-3.56-38.55-5.34c-1.08-0.15-1.82-1.15-1.66-2.22l0,0c0.15-1.07,1.14-1.82,2.22-1.67
						c12.5,1.77,25.72,3.58,38.53,5.33c12.81,1.75,26.04,3.56,38.55,5.34C548.38,558.76,549.12,559.75,548.97,560.83L548.97,560.83z
						"/>
				</g>
				<path style="fill:#333333;" d="M546.1,560.89l-0.86-19.83c-0.04-0.81,0.6-1.5,1.41-1.54l0,0c0.81-0.04,1.5,0.6,1.54,1.41
					l0.86,19.83c0.04,0.81-0.6,1.5-1.41,1.54l0,0C546.83,562.33,546.14,561.7,546.1,560.89z"/>
				<path style="fill:#302121;" d="M537.44,538.99c0.82,1.15,1.64,2.29,2.46,3.44c4.53-0.08,9.07-0.16,13.6-0.25
					c0.79-1.31,1.58-2.62,2.38-3.93C549.73,538.5,543.58,538.75,537.44,538.99z"/>
				<path style="fill:#456843;" d="M545,482.08c2.52-0.71,5-1.37,7.48-1.98c-2.1,1.06-4.2,2.25-6.26,3.58
					c-3.62,2.31-6.83,4.83-9.68,7.41l-7.31,1.59c-0.66-0.89-1.31-1.8-1.97-2.69c-0.39-0.55-0.79-1.09-1.19-1.64
					c0.21-0.08,0.41-0.16,0.62-0.24C532.43,485.94,538.54,483.9,545,482.08z"/>
				<path style="fill:#456843;" d="M610.57,473.49c-17.14-0.21-36.88,1.4-58.09,6.61C574.42,468.95,597.66,471.04,610.57,473.49z"/>
				<path style="fill:#456843;" d="M616.3,473.63l-2.47,0.54c-0.99-0.23-2.08-0.45-3.26-0.68
					C612.52,473.51,614.42,473.55,616.3,473.63z"/>
			</g>
			<path style="fill:#4D4C4D;" d="M507.94,408.97c-1.62,4.28-3.96,9.12-5.49,17.29c-1.54,8.18,5.48,17.32,10.15,20.55
				c20.32,14.01,42.92,13.15,52.63,12.15c3.96-2.96,7.92-5.92,11.88-8.87c-6.17-4.71-13.4-9.68-21.71-14.52
				c-8.59-5-16.73-8.92-24.07-12.02C524.48,418.42,514.78,414.1,507.94,408.97z"/>
			<path style="fill:#DF925A;" d="M542.99,530.58c-0.15,0.98-0.29,1.96-0.44,2.94c0.84,0.46,1.68,0.92,2.52,1.38
				c0.45-1.38,0.9-2.77,1.35-4.15C545.28,530.7,544.13,530.64,542.99,530.58z"/>
			<path style="fill:#4D4C4D;" d="M546.17,532.83c-0.17-0.03-0.33-0.07-0.5-0.11c-1.18-0.24-2.38-0.48-3.57-0.72
				c-0.14-1.3,0-15.78,0.18-35.11c0.02-2.31,0.9-18.9,2.8-21.66c1.96-2.84,2.59-4.26,8.37-7.82c4.35-2.68,6.36-2.92,8.48-6.15
				c1.41-2.15,2.26-4.27,2.78-6.03c0.21-0.72,0.38-1.37,0.51-1.95c3.28-1.61,6.55-3.2,9.82-4.81c0.58,0.38,1.22,0.84,1.83,1.39
				c0.94,0.85,1.83,1.88,2.39,3.15c0.19,0.41,0.35,0.85,0.46,1.31c1.28,5.29-3.8,10.51-6.58,13.75
				c-3.15,3.69-7.67,14.69-16.69,36.68C553.69,511.46,549.99,520.99,546.17,532.83z"/>
			<path style="opacity:0.27;fill:#4D4C4D;" d="M546.17,532.83c-0.17-0.03-0.33-0.07-0.5-0.11c-0.61-10.22-1.76-41.63,6.23-50.81
				c4.43-5.08,8.18-8.51,8.18-8.51c5.32-4.86,6.58-4.86,9.17-8.29c3.09-4.08,2.8-6.07,5.94-9.13c1.34-1.3,2.75-2.25,4.08-2.96
				c0.19,0.41,0.35,0.85,0.46,1.31c1.28,5.29-3.8,10.51-6.58,13.75c-3.15,3.69-7.67,14.69-16.69,36.68
				C553.69,511.46,549.99,520.99,546.17,532.83z"/>
			<g>
				<path style="fill:#F8A478;" d="M611.76,431.97c-5.25-5.45-9.75-10.02-13.23-13.53c-7.11-7.16-9.43-9.33-12.31-11.7
					c-3.17-2.61-6.1-4.68-8.54-6.28c-1.15-0.77-2.21-1.42-3.13-1.98c-1.03-0.27-2.25-3.74-3.13-1.96c-0.24,0.48-3.3,4.05,0.62,10.28
					c2.24,3.58,3.38,5.4,5.46,7.9c0.86,1.04,4.56,5.41,10.66,9.9c7.73,5.67,22.39,9.47,21.78,10.51
					C610.56,434.05,611.15,433.01,611.76,431.97z"/>
				<path style="fill:#F8A478;" d="M609.77,434.69c1.67,1.34,3.01,1.5,3.77,1.47c1.24-0.03,2.35-0.59,4.1-1.47
					c1.97-0.99,2.38-1.51,3.11-1.31c1,0.27,1.78,1.64,1.64,2.95c-0.12,1.07-0.84,2.01-1.88,2.46c0.31,0.18,0.79,0.4,1.39,0.41
					c1.53,0.03,2.57-1.3,3.03-1.88c0.31-0.39,1.12-1.46,1.23-3.03c0.17-2.5-1.59-4.22-2.13-4.75c-0.39-0.38-0.97-0.94-1.88-1.31
					c-1.76-0.72-3.45-0.21-4.92,0.25c-2.65,0.83-4.6,2.3-5.9,3.52C610.81,432.89,610.29,433.79,609.77,434.69z"/>
				<path style="fill:#1B1312;" d="M447.14,405.9c2.47-0.51,6.61-1.72,10.57-4.92c3.79-3.06,5.59-6.48,7.62-10.32
					c1.51-2.86,3.43-7.17,4.67-12.78c-1.35-1.31-3.64-3.92-4.79-7.87c-1.6-5.46-0.71-12.5,3.56-16.71
					c4.75-4.68,12.28-4.48,18.68-4.3c4.66,0.13,6.5,0.95,10.45,0.12c4.66-0.98,8.12-3.39,10.32-5.28c-0.7,1.84-1.39,3.69-2.09,5.53
					c-1.56,0.78-3.96,1.82-7.01,2.46c-4.48,0.94-7.33,0.4-10.94,0.25c-6.86-0.29-14.48-0.6-18.31,3.69
					c-4.01,4.49-2.23,12.18-1.72,14.38c1.01,4.38,3.15,7.49,4.55,9.22c-0.65,2.48-1.7,6.03-3.32,10.2
					c-2.08,5.35-3.25,8.37-5.78,11.55c-1.62,2.05-4.71,5.3-10.08,7.87C451.4,407.95,449.27,406.93,447.14,405.9z"/>
				<path style="fill:#F8A478;" d="M569.41,399.7c-0.94-1.08-2.23-2.68-3.56-4.73c-2.93-4.53-4.33-8.63-6.33-16.02
					c-2.88-10.66-4.29-16.02-3.08-17.75c3.19-4.52,12.46-4.03,18.17-1.25c0.78,0.37,2.05,1.01,3.35,2.07c0.92,0.76,1.86,1.74,2.62,3
					c1.53,2.51,1.62,4.82,1.5,10.57c-0.24,12.65-1.23,20.42-2.16,26.38C579.47,404.86,569.14,400.3,569.41,399.7z"/>
				<path style="fill:#82ABBD;" d="M567.32,394.86c3.06-1.06,6.51-2.04,10.32-2.79c1.55-0.3,3.06-0.55,4.51-0.74
					c-0.22-0.96-0.44-1.91-0.66-2.87c0.44-3.74,0.76-6.94,0.98-9.42c0.77-8.5,0.64-10.53-0.41-12.78c-0.44-0.95-1.69-3.56-4.59-5.33
					c-1.52-0.93-2.97-1.3-3.93-1.47c-1.44,1.71-3.59,4.58-5.41,8.52c-5.32,11.55-4.82,26.09-1.72,26.96
					C566.63,395,566.93,395.02,567.32,394.86z"/>
				<path style="fill:#C1734E;" d="M575.33,370.16c-2.04-0.02-3.26,3.86-5.3,3.83c-2.33-0.03-10.27,5.6-12.6,5.57
					c-1.08-5.9,2.52-21.92,1.45-27.83c-0.54-2.94-1.8-6.32-2.33-9.26c3.22,1.82,6.63,1.05,9.84,2.86c2.71-1.22,5.71-2.86,8.84-5.06
					c1.88-1.32,3.56-2.68,5.05-4c0.97,0.56,2.94,1.89,4.17,4.44c0.67,1.41,1,2.97,1.02,4.57c0.03,2.65-0.86,5.37-2.57,7.58
					c-2.77,2.26-5.54,4.51-8.3,6.76c0.08,1.37,0.18,2.75,0.26,4.12C575.02,365.9,575.17,368.04,575.33,370.16z"/>
				<path style="fill:#6F929F;" d="M575.48,373.13c-3.34,5.85-8.38,15.18-11.72,21.04c-0.88,0.16-1.76,0.3-2.65,0.45
					c-1.04,1.43-2.91,4-5.27,7.19c-7.91,10.74-10.59,17.99-11.66,22.44c-4.5-2.64-9.43,4.31-14.52,0.23
					c-1.95-1.58-8.3-5.28-12.98-8.01c-2.86-1.67-5.27-6.21-5.51-6.44c6.35-12.8,10.97-28.18,16.72-43.94
					c1.86-5.1,7.58-29.29,28.67-25.14c5,1.43,7.22,2.77,7.24,2.92c0.82,7.46,2.34,16.91,4.68,19.28c1.88,1.23,3.91,2.24,6.13-3.52
					C575.12,362.82,576.65,369.6,575.48,373.13z"/>
				<path style="fill:#C1734E;" d="M608.88,436.2c-5.98-4.64-11.09-8.52-15.04-11.49c-8.07-6.07-10.68-7.88-13.86-9.81
					c-3.51-2.12-6.7-3.75-9.35-4.99c-1.25-0.59-2.39-1.09-3.38-1.51c-1.06-0.12-5.21-0.5-5.83,1.38c-0.16,0.51-0.23,1.61,4.54,7.21
					c2.73,3.22,4.12,4.86,6.54,7.03c1,0.91,5.29,4.7,11.98,8.26c8.46,4.5,22.87,6.86,23.21,6.91
					C608.13,438.08,608.42,437.32,608.88,436.2z"/>
				<g>
					<path style="fill:#1E1110;" d="M601.97,337.08c-7.29,10.43-4.66-3.35-4.74-3.36c-2.67-0.56-24.7,15.82-33.92,11.11
						c-0.18-1.45,5.25-5.64,3.7-7.53c-2.4-2.91-0.06-5.4,1.57-10.85c1.32-4.44,2.08-6.87,4.49-8.82c1.61-1.3,3.32-1.86,4.5-2.14
						c1.56,0.32,3.12,0.65,4.67,0.96c0.66-1.55,1.33-2.06,2.94-3.07c1.44,0.05,5.36,0.38,7.37,1.54c2.6,1.52,3.79,3.74,4.64,5.08
						C598.82,322.58,602.25,337.2,601.97,337.08z"/>
					<path style="fill:#F8A478;" d="M599.26,330c-0.02,1.08-0.04,2.17-0.06,3.26c-0.05,2.58-0.09,5.17-0.15,7.76
						c-1,0.95-2.01,1.9-3.01,2.85c-0.15,1.43,1.09,6.98,0.32,9.31c-0.84,0.27-3.14-0.05-3.56-0.12c0,0.36-0.46,1.19-0.46,1.57
						c-0.96-0.3,0.07,3.7-1.96,7.69c-0.39,0.75-1.95,0.31-2.77,0.04c-1.43-0.67-2.84-1.46-4.17-2.4c-3.4-2.39-8.09-7.93-8.67-10.09
						c-0.22-1.59,1.73-4.79,2.6-6.16c-0.59-0.4-1.86-1.37-2.52-3.06c-0.34-0.88-0.43-1.71-0.37-2.46l0,0
						c0.1-1.4,0.68-2.48,0.96-2.98c0.52-0.97,1.24-2.31,2.41-2.36c1.33-0.03,2.91,1.61,3.61,4.15c-0.1,0.3-0.2,0.59-0.29,0.89
						c-0.19,0.59-0.38,1.17-0.58,1.75c0.7,0.25,1.39,0.5,2.09,0.75c0.44-1.44,1.08-3.09,2.02-4.83c1.3-2.43,2.77-4.29,4.04-5.66
						c1.89,0.01,3.79,0.03,5.69,0.04C596.05,329.98,597.66,329.99,599.26,330z"/>
					<g>
						<path style="fill:#C1734E;" d="M589.14,341.47c-0.93-0.59,0.76,0.67,3.45-1.32c1.06-0.78,2.86-1.36,3.43-0.84
							c0.59,0.55-0.23,2.2-0.77,3.3c-0.33,0.66-0.66,1.17-0.89,1.49c0.12,0.53,0.24,1.06,0.36,1.59c-0.47-0.15-0.99-0.35-1.53-0.6
							c-1.3-0.6-3.88-2.33-4.61-2.93C588.67,342.02,593.42,344.16,589.14,341.47z"/>
						<path style="fill:#FFFFFF;" d="M594.26,344.77c-0.06,0.08-0.11,0.16-0.18,0.23c-0.13-0.09-0.28-0.19-0.41-0.28
							c-0.09-0.05-0.17-0.11-0.27-0.18c-0.91-0.6-1.82-1.22-2.72-1.84c0.25-0.31,0.79-0.9,1.69-1.25c1.36-0.53,2.59-0.14,2.92-0.03
							c0.01,0.09,0,0.18-0.01,0.29c0,0.04,0,0.1,0,0.14c-0.02,0.34-0.09,0.77-0.21,1.25c-0.07,0.15-0.11,0.3-0.17,0.44
							c-0.16,0.44-0.36,0.8-0.55,1.1C594.33,344.68,594.29,344.74,594.26,344.77z"/>
						<path style="fill:#321A12;" d="M596.9,341.1c-0.02,0.22-2.45,0.5-4.62,0.98c-0.71,0.16-0.89,0.6-1.27,0.72
							c1.36,0.87,2.32,1.49,3.68,2.36c0.05,0.18,0.1,0.36,0.15,0.53c-1.54-1.06-3.08-2.13-4.62-3.19c0.26-0.17,0.65-0.41,1.14-0.67
							c0.92-0.47,1.56-0.8,2.37-0.86C594.82,340.9,596.93,340.9,596.9,341.1z"/>
						<path d="M594.4,344.67c-0.21,0.05-0.4,0.03-0.58-0.05c-0.04,0-0.09-0.02-0.11-0.04c-0.06-0.03-0.11-0.08-0.15-0.14
							c-0.44-0.4-0.49-1.24-0.06-1.98c0.47-0.82,1.34-1.2,1.92-0.87c0,0.04,0,0.1,0,0.14c-0.02,0.34-0.09,0.77-0.21,1.25
							c-0.07,0.15-0.11,0.3-0.16,0.45c-0.16,0.44-0.35,0.8-0.55,1.1C594.46,344.57,594.42,344.63,594.4,344.67z"/>
						<path style="fill:#FFFFFF;" d="M595.17,342.55c-0.16,0.14-0.36,0.17-0.46,0.07c-0.09-0.1-0.04-0.3,0.12-0.44
							c0.16-0.14,0.36-0.17,0.46-0.07C595.39,342.21,595.33,342.41,595.17,342.55z"/>
						<path style="fill:#321A12;" d="M590.29,337.83c0.03,0.17,1.2-0.25,2.73,0.18c0.56,0.16,2.6,0.73,3.44,2.3
							c0.2,0.38,0.49,1.12,1.26,1.51c0.21,0.1,0.39,0.16,0.52,0.18c0.09-0.02,0.62-0.17,0.92-0.71c0.27-0.47,0.18-0.93,0.15-1.04
							c-0.39-0.24-0.95-0.62-1.54-1.2c-0.82-0.81-0.81-1.13-1.35-1.54c-0.9-0.68-2.02-0.6-3.13-0.52
							C591.7,337.11,590.25,337.64,590.29,337.83z"/>
					</g>
					<path style="fill:#C1734E;" d="M592.06,349.9c-0.17-0.11-1.35,0.7-1.2,1.66c0.11,0.73,0.96,1.36,2,1.24
						c-0.39-0.1-0.89-0.31-1.11-0.75C591.3,351.18,592.24,350.01,592.06,349.9z"/>
					<path style="opacity:0.5;fill:#F8A478;" d="M581.43,337.02c-0.09,0.3-0.18,0.6-0.27,0.89c-0.12-0.3-0.28-0.65-0.51-1.01
						c-0.41-0.68-1.41-2.33-2.67-2.34c-0.97-0.01-1.67,0.98-2.54,2.2c-0.39,0.55-0.71,1.09-0.96,1.62c0.07-1.4,0.62-2.5,0.88-3
						c0.49-0.98,1.18-2.34,2.35-2.41C579.05,332.9,580.67,334.51,581.43,337.02z"/>
					<path style="fill:#7DC25F;" d="M604.19,328.14c-0.9,3.24-2.87,5.57-3.4,6.19c-2.64-0.76-5.56-1.44-8.72-1.93
						c-9.53-1.47-17.88-0.73-24.23,0.46c-1.8-0.44-5.14-1.54-8.27-4.43c-1.81-1.67-3.72-3.44-4.14-5.35
						c-0.08-0.32-0.1-0.64-0.08-0.98c0.33-5.36,13.48-8.43,18.4-9.58c7.98-1.86,14.23-3.33,20.9-0.2c2.32,1.09,8.95,4.19,9.91,10.87
						C604.82,325,604.63,326.67,604.19,328.14z"/>
					<path style="fill:#070808;" d="M569.96,332.7c2.05,4.33,3.91,7.72,5.28,10.06c1.2,2.06,2.08,3.43,2.83,5.63
						c1.07,3.14,1.2,5.98,1.12,7.93c0.42,0.51,0.83,1.01,1.25,1.52c0.01-2.33,0.25-5.04,0.94-7.98c2.15-9.16,7.47-15.28,10.59-18.32
						c-0.85-0.05-1.69-0.11-2.54-0.16c-1.03,1.11-2.59,2.97-4.08,5.53c-3.46,5.97-3.2,10.15-4.96,10.38
						c-2.22,0.29-4.85-6.04-5.75-8.63c-0.9-2.58-1.26-4.89-1.41-6.64C572.14,332.25,571.05,332.47,569.96,332.7z"/>
					<path style="fill:#7DC25F;" d="M604.19,328.14c-0.33-1.56-0.94-3.4-2.08-5.21c-4.29-6.85-12.59-7.99-18-8.73
						c-2.72-0.37-18.42-2.53-27.09,6.91c-0.63,0.69-1.16,1.36-1.59,1.98c-0.08-0.32-0.1-0.64-0.08-0.98
						c0.33-5.36,13.48-8.43,18.4-9.58c7.98-1.86,14.23-3.33,20.9-0.2c2.32,1.09,8.95,4.19,9.91,10.87
						C604.82,325,604.63,326.67,604.19,328.14z"/>
					<path style="fill:#C1734E;" d="M586.38,354.17c0.33-0.12,0.87-0.27,1.54-0.28c0.93-0.01,1.42,0.28,2.67,0.52
						c0.4,0.08,1.01,0.17,1.78,0.22c-0.17,0.22-0.35,0.43-0.52,0.65c0.31,0.39,0.38,0.87,0.18,1.2c-0.09,0.15-0.22,0.25-0.34,0.31
						c-0.5-0.38-1.07-0.78-1.72-1.17c-0.62-0.37-1.21-0.67-1.75-0.92L586.38,354.17z"/>
				</g>
				<path style="fill:#C1734E;" d="M560.4,352.03c1.87,3.63,1.78,7.08,1.76,8.53c0,0,4.42,30.46,10.86,50.52
					c1.46,4.54-11.44,1.31-11.27,0.77c-1.83-1.64-4.52-4.22-7.34-7.74c-11.31-14.1-13.23-28.75-14.08-35.96
					c-1.5-12.7,1.12-16.99,2.55-18.83c0.71-0.91,3.63-4.68,7.89-4.71C556.44,344.56,559.96,351.17,560.4,352.03z"/>
				<path style="fill:#B44926;" d="M553.57,339.86c-2.48,2.25-4.64,4.45-6.51,6.53c-3.31,3.65-5.73,6.9-7.42,9.37
					c-10.08,14.68-11.83,26.68-25.4,55.23c-3.41,7.18-5.64,11.35-10.49,14.09c-8.31,4.71-20.18,2.88-28.02-3.27
					c-10.17-8-10.49-20.94-9.83-27.76c0.22-2.29,0.55-3.88,0.66-4.37c0.67-3.03,3.24-12.68,12.29-19.66
					c4.39-3.39,8.79-4.97,11.63-5.73c6.22-8.36,12.15-14.7,16.71-19.17c9.13-8.96,14.03-11.62,17.37-13.12
					c4.8-2.13,9.75-4.34,15.73-2.95C548.36,330.92,552.56,338.02,553.57,339.86z"/>
				<path style="fill:#1B1312;" d="M575.86,359.04c-0.23,2.78-0.55,5.08-0.82,6.72c-0.66,4.02-1.45,10.92-5.41,18.35
					c-0.87,1.64-1.75,3.28-2.62,4.92c2.37-7.02,4.52-14.67,6.23-22.94c0.44-2.12,0.83-4.21,1.19-6.27c0.46-0.41,0.93-0.82,1.39-1.23
					C575.83,358.74,575.84,358.89,575.86,359.04z"/>
				<path style="fill:#1B1312;" d="M538.7,392.01c1.86,0.24,3.88,0.59,6.02,1.11c1.26,0.3,2.45,0.63,3.56,0.98
					c0.57,1.19,1.15,2.38,1.72,3.56c-4.71-0.86-9.42-1.72-14.13-2.58C536.81,394.06,537.76,393.04,538.7,392.01z"/>
				<path style="opacity:0.26;fill:#513124;" d="M553.57,339.86c-3.31,3.65-12.24,13.43-13.93,15.9
					c-10.08,14.68-11.83,26.68-25.4,55.23c-3.41,7.18-5.64,11.35-10.49,14.09c-8.31,4.71-20.18,2.88-28.02-3.27
					c-10.17-8-10.49-20.94-9.83-27.76c1.12,3.56,3.05,7.48,6.31,11.12c5.1,5.68,11.08,7.95,14.01,8.85
					c5.96-14.74,12.81-25.83,18.19-33.43c8.37-11.82,16.99-20.57,24.33-28.02c4.92-4.98,9.19-8.99,12.29-11.8
					C544.35,340.6,551.56,337.99,553.57,339.86z"/>
				<path style="fill:#1B1312;" d="M553.82,340.03c1.7,0.02,7.37,0.29,10.32,4.34c1.16,1.59,1.52,3.25,1.72,4.67
					c1.15,8.23-1.63,18.59-2.87,22.78c-0.44-2.46-0.87-4.92-1.31-7.37c0.41-2.04,0.85-5.01,0.82-8.6c-0.03-4.44-0.05-6.91-1.47-8.77
					c-3.51-4.57-12.97-2.12-13.52-1.97c0.1-0.27,1.96-5.13,5.16-5.24C553.01,339.85,553.39,339.89,553.82,340.03z"/>
				<path style="fill:#1B1312;" d="M517.44,405.16c4.82-4.27,9.75-8.85,14.75-13.76c3.71-3.65,7.23-7.26,10.57-10.82
					c0.53,1.97,1.07,3.93,1.6,5.9c-2.93,3.39-6.24,6.91-9.95,10.45c-8.05,7.66-16.06,13.55-23.23,18.07
					c1.47-3.03,2.95-6.06,4.42-9.09C516.21,405.66,516.82,405.41,517.44,405.16z"/>
				<g>
					<path style="fill:#CBBA3F;" d="M468.17,376.95c1.66,0.8,7.96,3.59,15.24,1.31c0.57-0.18,12.71-4.2,13.44-14.91
						c0.42-6.15-3.09-12.11-8.19-14.91c-8.36-4.59-20.81-0.6-23.92,8.36c-1.97,5.65-0.22,13.26,5.57,17.21
						c5.02,3.42,11.3,2.9,15.73,0.49c1.13-0.61,7.17-4.07,7.87-11.14c0.04-0.41,0.61-7.26-4.42-11.47
						c-5.45-4.56-15.51-4.41-19.66,2.13c-3.05,4.81-2.3,12.09,2.62,16.06c4.79,3.87,12.61,3.85,16.39-0.98
						c2.77-3.55,3.18-9.45-0.33-13.27c-3.54-3.86-10.08-4.52-13.11-1.47c-4.03,4.06-0.83,13.67,3.28,14.58
						c3.61,0.81,9.25-4.83,8.19-8.03c-1.01-3.05-8.2-4.15-9.34-2.29c-1.13,1.84,3.66,6.62,4.1,7.05L468.17,376.95z"/>
					<path style="fill:#887830;" d="M468.17,376.95c0,0,0.25,0.11,0.74,0.32c0.49,0.2,1.23,0.49,2.22,0.79
						c1.96,0.58,5,1.23,8.8,0.74c1.9-0.25,3.94-0.81,5.99-1.88c2.06-1.02,4.16-2.41,6.04-4.26c1.88-1.84,3.4-4.29,4.06-7.13
						c0.68-2.83,0.38-6.03-0.88-8.97c-1.25-2.93-3.46-5.65-6.42-7.35l-0.28-0.16l-0.07-0.04c-0.03-0.02,0.02,0.01-0.04-0.02
						l-0.15-0.07l-0.61-0.28c-0.41-0.18-0.82-0.4-1.22-0.5l-1.22-0.39c-0.43-0.09-0.86-0.18-1.29-0.27
						c-1.74-0.28-3.56-0.33-5.36-0.08c-1.8,0.27-3.59,0.79-5.28,1.58c-1.69,0.78-3.25,1.89-4.57,3.22
						c-1.31,1.34-2.41,2.93-3.04,4.73c-0.14,0.38-0.32,0.96-0.41,1.4c-0.09,0.45-0.2,0.9-0.24,1.39c-0.13,0.96-0.13,1.94-0.07,2.91
						c0.29,3.89,2.15,7.79,5.34,10.19c3.14,2.48,7.49,3.26,11.48,2.32c2-0.44,3.92-1.3,5.57-2.52c1.66-1.22,3.13-2.75,4.14-4.52
						c1.03-1.75,1.57-3.81,1.59-5.81c-0.02-2.06-0.45-4.16-1.33-5.99c-0.43-0.92-0.97-1.79-1.65-2.53c-0.31-0.4-0.7-0.72-1.06-1.07
						c-0.32-0.26-0.86-0.67-1.26-0.93c-1.64-1.04-3.7-1.75-5.73-1.98c-2.05-0.24-4.14-0.02-6.06,0.64
						c-1.92,0.65-3.63,1.83-4.81,3.42c-2.45,3.15-2.78,7.73-1.24,11.35c0.79,1.81,2.01,3.41,3.6,4.54c1.57,1.17,3.44,1.85,5.35,2.15
						c3.83,0.56,7.87-0.8,9.88-3.98c1.94-3.02,2.14-7.26,0.3-10.25c-0.24-0.37-0.47-0.74-0.76-1.06l-0.21-0.25
						c-0.02-0.03-0.15-0.15-0.22-0.22l-0.5-0.49c-0.62-0.53-1.35-1.04-2.12-1.43c-1.55-0.77-3.26-1.17-4.93-1.11
						c-1.66,0.04-3.28,0.58-4.4,1.64c-0.19,0.22-0.57,0.63-0.75,0.93c-0.16,0.33-0.38,0.6-0.49,0.99c-0.14,0.36-0.27,0.73-0.33,1.11
						c-0.1,0.38-0.14,0.77-0.16,1.16c-0.11,1.56,0.13,3.13,0.61,4.57c0.48,1.44,1.18,2.79,2.15,3.81c0.5,0.47,1.03,0.94,1.65,1.11
						l0.22,0.09l0.22,0.03c0.17,0.01,0.38,0.07,0.52,0.05c0.3-0.02,0.6-0.03,0.93-0.13c1.29-0.3,2.45-1.07,3.43-1.91
						c0.97-0.86,1.79-1.85,2.33-2.92c0.54-1.07,0.73-2.26,0.12-3.2c-0.58-0.84-1.58-1.44-2.53-1.81c-0.97-0.38-1.96-0.59-2.9-0.68
						c-0.94-0.08-1.86-0.04-2.61,0.27c-0.16,0.11-0.37,0.17-0.47,0.32c-0.05,0.06-0.15,0.14-0.16,0.19l-0.11,0.28
						c-0.06,0.34-0.02,0.71,0.1,1.06c0.48,1.39,1.3,2.41,1.92,3.22c1.29,1.61,2.08,2.38,2.08,2.38s-0.2-0.19-0.58-0.57
						c-0.37-0.38-0.92-0.95-1.59-1.74c-0.33-0.4-0.69-0.85-1.06-1.37c-0.37-0.52-0.74-1.12-1-1.85c-0.13-0.35-0.21-0.78-0.13-1.23
						l0.1-0.29c0.06-0.14,0.14-0.19,0.22-0.29c0.14-0.2,0.36-0.27,0.55-0.41c0.84-0.37,1.79-0.42,2.77-0.37
						c0.98,0.06,2.01,0.26,3.03,0.63c1.02,0.39,2.07,0.91,2.85,1.99c0.3,0.47,0.56,1.2,0.47,1.83c0.02,0.34-0.11,0.64-0.15,0.97
						c-0.11,0.3-0.21,0.62-0.35,0.92c-0.56,1.19-1.4,2.26-2.42,3.2c-1.02,0.92-2.22,1.78-3.71,2.18c-0.36,0.12-0.77,0.16-1.2,0.18
						c-0.21,0.02-0.37-0.03-0.56-0.04c-0.11-0.01-0.13-0.01-0.32-0.04l-0.29-0.1c-0.82-0.21-1.46-0.76-2.06-1.29
						c-1.14-1.15-1.9-2.6-2.45-4.15c-0.53-1.55-0.83-3.23-0.73-4.98c0.02-0.44,0.06-0.87,0.17-1.31c0.06-0.44,0.2-0.87,0.36-1.3
						c0.11-0.43,0.4-0.86,0.63-1.28c0.11-0.23,0.26-0.35,0.39-0.53l0.2-0.25l0.1-0.13l0.05-0.06c0.09-0.1,0.06-0.06,0.1-0.1
						c1.38-1.35,3.3-1.99,5.18-2.06c1.9-0.09,3.82,0.33,5.58,1.17c0.88,0.43,1.69,0.97,2.5,1.65l0.51,0.49
						c0.09,0.1,0.15,0.13,0.28,0.28l0.24,0.29c0.34,0.38,0.62,0.8,0.9,1.23c0.53,0.87,0.93,1.82,1.2,2.82
						c0.26,1,0.37,2.03,0.36,3.07c-0.04,2.09-0.6,4.14-1.77,6.03l-0.43,0.62c-0.18,0.26-0.36,0.43-0.54,0.64
						c-0.34,0.43-0.76,0.77-1.17,1.14c-0.86,0.66-1.81,1.26-2.84,1.63c-2.04,0.82-4.29,0.98-6.46,0.71
						c-2.16-0.32-4.32-1.1-6.14-2.44c-1.84-1.3-3.29-3.17-4.2-5.25c-0.89-2.1-1.26-4.42-1.04-6.71c0.12-1.14,0.34-2.29,0.76-3.37
						c0.45-1.14,0.93-2.13,1.69-3.07c0.69-0.96,1.58-1.75,2.52-2.47c0.98-0.65,2.02-1.23,3.13-1.6c2.21-0.78,4.58-1.02,6.89-0.77
						c2.33,0.28,4.55,0.99,6.63,2.3c0.52,0.34,0.86,0.6,1.4,1.03c0.44,0.41,0.89,0.8,1.27,1.26c0.8,0.89,1.45,1.9,1.95,2.98
						c1.02,2.15,1.47,4.49,1.49,6.82c-0.03,2.4-0.68,4.73-1.88,6.76c-1.17,2.04-2.83,3.73-4.68,5.08c-1.87,1.37-4.02,2.31-6.26,2.8
						c-2.23,0.5-4.57,0.54-6.81,0.1c-1.12-0.24-2.21-0.57-3.25-1.05c-1.07-0.52-2.01-1.04-2.9-1.76c-3.62-2.77-5.66-7.15-5.96-11.47
						c-0.07-1.09-0.06-2.18,0.1-3.25c0.05-0.53,0.17-1.08,0.3-1.62c0.14-0.55,0.26-0.95,0.46-1.52c0.72-2.05,1.99-3.83,3.47-5.3
						c1.5-1.46,3.22-2.63,5.07-3.46c1.85-0.82,3.79-1.35,5.73-1.62c1.95-0.24,3.91-0.16,5.79,0.17c0.47,0.1,0.93,0.21,1.4,0.31
						c0.46,0.14,0.92,0.31,1.37,0.47c0.47,0.14,0.86,0.36,1.27,0.55l0.61,0.29l0.15,0.07c-0.01,0,0.09,0.04,0.11,0.06l0.07,0.05
						l0.3,0.18c3.2,1.91,5.51,4.86,6.8,8.01c1.3,3.16,1.58,6.59,0.78,9.61c-0.78,3.03-2.48,5.57-4.47,7.43
						c-2,1.87-4.18,3.24-6.31,4.23c-2.11,1.03-4.25,1.57-6.18,1.77c-3.89,0.41-6.93-0.38-8.88-1.02c-0.98-0.33-1.71-0.64-2.2-0.86
						C468.42,377.07,468.17,376.95,468.17,376.95z"/>
				</g>
				<path style="fill:#D06041;" d="M505.02,348.39c-1.96-0.47-3.26-2.86-3.44-4.67c-0.38-3.73,3.75-6.78,6.39-8.73
					c2.84-2.09,8.55-5.54,17.7-6.39c-3.56-0.08-7.13-0.16-10.69-0.25c0.41-0.57,0.82-1.15,1.23-1.72c3.16-0.46,7.39-0.75,12.29-0.12
					c3.35,0.43,6.25,1.18,8.6,1.97c-3.83,0.45-9.82,1.68-15.61,5.65C512.5,340.29,509.31,349.41,505.02,348.39z"/>
				<path style="fill:#C1734E;" d="M607.36,439.41c1.85,1.08,3.2,1.05,3.94,0.92c1.22-0.21,2.24-0.92,3.84-2.05
					c1.8-1.27,2.13-1.84,2.89-1.75c1.03,0.13,2,1.37,2.05,2.68c0.04,1.08-0.54,2.11-1.51,2.7c0.33,0.13,0.84,0.28,1.44,0.21
					c1.51-0.19,2.36-1.66,2.73-2.3c0.25-0.43,0.9-1.6,0.78-3.18c-0.19-2.5-2.18-3.95-2.79-4.4c-0.44-0.32-1.1-0.79-2.05-1.03
					c-1.85-0.46-3.44,0.28-4.83,0.95c-2.5,1.2-4.22,2.93-5.33,4.34C608.13,437.48,607.75,438.45,607.36,439.41z"/>
				<path style="fill:#5C7A81;" d="M542.91,386.1c1.07,0.66,3.34-1.25,3.93-1.72c2.54-2.01,7.73-3.99,19.3-4.06
					c-0.37-0.78-0.74-1.56-1.11-2.34c-0.39-4.3-0.94-10.03-1.72-16.84c-0.58-5.08-1.01-8.38-3.44-11.68
					c-1.02-1.38-2.9-3.86-6.27-4.67c-4.19-1.01-7.63,1.31-8.23,1.72c-2.8,1.89-3.92,4.53-4.67,6.39c-1.49,3.68-1.67,7.18-1.23,12.78
					c0.36,4.46,1.13,10.54,2.95,17.7C542.28,384.43,542.25,385.69,542.91,386.1z"/>
			</g>
			<path style="fill:#598D7B;" d="M540.7,536.87c0.49-1.35,0.97-2.69,1.46-4.04c1.19,0.23,2.37,0.45,3.56,0.68
				c0.32,1.65,1,2.51,1.55,2.99c1.49,1.29,3.59,1.12,4.3,2.7c0.12,0.27,0.17,0.52,0.19,0.66c-1.85-0.07-3.39-0.32-4.52-0.55
				c-0.58-0.12-1.48-0.31-2.62-0.69C542.95,538.07,541.63,537.4,540.7,536.87z"/>
			<circle cx="618.23" cy="438.87" r="2.79"/>
		</g>
		<path style="fill:#1E1110;" d="M581.87,341.15c-0.57,0.65-1.38,1.71-1.97,3.2c-0.92,2.31-0.77,4.28-0.74,4.67
			c0.28,3.2,2.11,5.31,2.83,6.1c2.49,2.78,6.83,4.95,8.4,3.65c0.55-0.45,0.67-1.26,0.66-1.97c0.2,0.14,0.41,0.27,0.61,0.41
			c0.04,0.83,0.1,2.05,0.2,3.52c0.2,2.76,0.34,3.49-0.12,3.89c-0.6,0.52-1.72,0.12-4.06-0.86c-3.76-1.59-5.64-2.38-6.47-2.95
			c-0.67-0.46-7.97-5.57-7.05-11.06c0.16-0.94,0.72-1.89,1.84-3.77c1.7-2.85,3.42-4.96,4.63-6.31c0.67,0.25,1.34,0.49,2.01,0.74
			C582.39,340.66,582.13,340.9,581.87,341.15z"/>
		<path style="fill:#7DC25F;" d="M558.93,321.65c-0.08-1.07,8.02-2.46,12.21-3.03c8.66-1.18,14.97-1.97,21.96,0.74
			c2.69,1.04,9.27,3.59,9.75,8.36c0.22,2.17-0.91,4.08-1.88,5.33c-3.07-2-7.76-4.69-13.85-6.8
			C572.05,321.01,559.03,323.01,558.93,321.65z"/>
		<g>
			<path style="fill:#4A4A4A;" d="M599.05,342.35c-0.48,1.53-1.14,3.95-2.37,5.01c-0.22-0.05-0.48-0.12-0.77-0.2
				c-0.56-0.17-1.23-0.41-1.93-0.73c-0.37-0.17-0.76-0.36-1.13-0.58c-0.35-0.2-0.7-0.41-1.04-0.65c-2.35-1.65-3.52-3.72-4.03-4.77
				c0.41-0.32,0.83-0.65,1.23-0.98c-2.56-0.91-5.11-1.84-7.68-2.76c-0.18-0.41-0.34-0.84-0.52-1.26c3.18,1.25,6.35,2.5,9.53,3.75
				c0.53,0.26,1.08,0.49,1.64,0.69c0.25,0.1,0.5,0.2,0.76,0.28c0.79,0.28,1.59,0.51,2.39,0.76
				C596.47,341.32,597.82,341.75,599.05,342.35z"/>
			<path style="fill:#4A4A4A;" d="M593.98,346.44c-0.37-0.17-0.76-0.36-1.13-0.58c-0.05-1.08-0.16-2.28-0.36-3.57
				c-0.15-0.87-0.32-1.67-0.51-2.42c0.25,0.1,0.5,0.2,0.76,0.28c0.19,0.68,0.37,1.4,0.55,2.14
				C593.62,343.78,593.84,345.17,593.98,346.44z"/>
			<path style="fill:#4A4A4A;" d="M599.05,342.35c-0.48,1.53-1.14,3.95-2.37,5.01c-0.22-0.05-0.48-0.12-0.77-0.2
				c0.06-1.03,0.04-2.26-0.17-3.62c-0.15-0.99-0.37-1.88-0.62-2.64C596.47,341.32,597.82,341.75,599.05,342.35z"/>
		</g>
	</g>
	<g>
		<path style="fill:#1F1E2F;" d="M901.54,418.66c0.76,1.31,1.04,2.56,1.72,6.98c2.18,14.2,2.73,22.98,2.73,22.98
			c1.08,16.98,1.61,25.93,0.8,38.8c-0.25,4.01-0.54,6.88-0.64,7.93c-1.17,12.29-1.67,34.27,0.54,76.28
			c-1.2-0.01-2.41-0.02-3.61-0.03c-4.15-19.86-9.24-34.09-13.31-43.72c-2.34-5.54-5.69-12.73-5.07-22.4
			c0.34-5.25,2.72-12.57,6.57-19.35c1.1-1.93,2.13-3.46,2.9-4.54c-8.2-12.01-13.12-22.93-16.06-30.66
			c-5.06-13.29-5.69-20.89-5.67-26.05c0.02-4.29,0.51-7.84,0.94-10.27C879.38,413.27,896.56,410.01,901.54,418.66z"/>
		<path style="fill:#1F1E2F;" d="M901.94,577.01c0.49-1.35,0.97-2.69,1.46-4.04c1.19,0.23,2.37,0.45,3.56,0.68
			c0.32,1.65,1,2.51,1.56,2.99c1.49,1.29,3.59,1.12,4.3,2.7c0.12,0.27,0.17,0.52,0.19,0.66c-1.85-0.07-3.39-0.32-4.52-0.55
			c-0.58-0.12-1.48-0.31-2.62-0.69C904.19,578.21,902.87,577.55,901.94,577.01z"/>
		<g>
			<path style="fill:#333333;" d="M905.51,579.42l-0.86-19.83c-0.04-0.81,0.6-1.5,1.41-1.54l0,0c0.81-0.03,1.5,0.6,1.54,1.41
				l0.86,19.83c0.04,0.81-0.6,1.5-1.41,1.54l0,0C906.23,580.86,905.54,580.23,905.51,579.42z"/>
			<path style="fill:#302121;" d="M898.18,579.82c0.82,1.15,1.64,2.29,2.46,3.44c4.53-0.08,9.07-0.16,13.6-0.25
				c0.79-1.31,1.58-2.62,2.38-3.93C910.47,579.33,904.32,579.58,898.18,579.82z"/>
			<g>
				<path style="fill:#FFFFFF;" d="M870.34,442.52c12.02,38.78,24.03,77.26,36.05,116.04L870.34,442.52z"/>
				<path d="M903.57,559.43c-5.99-19.34-11.99-38.6-17.98-57.87c-6.02-19.36-12.05-38.73-18.07-58.17l5.64-1.75
					c6.02,19.44,12.05,38.8,18.07,58.16c5.99,19.27,11.99,38.53,17.98,57.88L903.57,559.43z"/>
			</g>
			<g>
				<path style="fill:#FFFFFF;" d="M882.46,479.56c32.45-3.93,64.89-7.87,97.34-11.8L882.46,479.56z"/>
				<rect x="882.11" y="470.71" transform="matrix(0.9927 -0.1203 0.1203 0.9927 -50.2043 115.4155)" width="98.05" height="5.9"/>
			</g>
			<g>
				<path style="fill:#FFFFFF;" d="M982.75,475.62c-25.56,27.53-51.13,55.06-76.69,82.59L982.75,475.62z"/>
				<rect x="888.05" y="513.97" transform="matrix(0.6804 -0.7328 0.7328 0.6804 -76.9916 857.2905)" width="112.7" height="5.9"/>
			</g>
			<g>
				<path d="M827.56,610.5c-33.61,0-60.96-27.35-60.96-60.96c0-33.61,27.35-60.96,60.96-60.96c33.61,0,60.96,27.35,60.96,60.96
					C888.52,583.15,861.17,610.5,827.56,610.5z M827.56,493.49c-30.9,0-56.05,25.14-56.05,56.05s25.14,56.05,56.05,56.05
					c30.9,0,56.05-25.14,56.05-56.05S858.46,493.49,827.56,493.49z"/>
				<path style="fill:#CDCDCD;" d="M827.56,605.98c-31.12,0-56.45-25.32-56.45-56.45s25.32-56.45,56.45-56.45
					c31.12,0,56.45,25.32,56.45,56.45S858.68,605.98,827.56,605.98z M827.56,499.97c-27.33,0-49.56,22.23-49.56,49.56
					s22.23,49.56,49.56,49.56s49.56-22.23,49.56-49.56S854.89,499.97,827.56,499.97z"/>
				<rect x="824.78" y="497.25" style="fill:#CDCDCD;" width="1.97" height="106.52"/>
				<rect x="773.64" y="546.5" style="fill:#CDCDCD;" width="107.84" height="1.97"/>
				
					<rect x="772.02" y="547.12" transform="matrix(0.7071 -0.7071 0.7071 0.7071 -145.8173 744.1733)" style="fill:#CDCDCD;" width="106.75" height="1.97"/>
				
					<rect x="826.42" y="496.99" transform="matrix(0.7071 -0.7071 0.7071 0.7071 -146.1178 745.9698)" style="fill:#CDCDCD;" width="1.97" height="104.75"/>
				<circle style="fill:#E8E7E7;" cx="825.39" cy="547.48" r="7.78"/>
			</g>
			<g>
				<path d="M1009.3,609.67c-33.61,0-60.96-27.35-60.96-60.96c0-33.61,27.35-60.96,60.96-60.96c33.61,0,60.96,27.35,60.96,60.96
					C1070.26,582.32,1042.91,609.67,1009.3,609.67z M1009.3,492.66c-30.9,0-56.04,25.14-56.04,56.05s25.14,56.04,56.04,56.04
					c30.9,0,56.05-25.14,56.05-56.04S1040.2,492.66,1009.3,492.66z"/>
				<path style="fill:#CDCDCD;" d="M1009.3,605.15c-31.12,0-56.45-25.32-56.45-56.45s25.32-56.45,56.45-56.45
					s56.45,25.32,56.45,56.45S1040.42,605.15,1009.3,605.15z M1009.3,499.14c-27.33,0-49.56,22.23-49.56,49.56
					c0,27.33,22.23,49.56,49.56,49.56c27.33,0,49.56-22.23,49.56-49.56C1058.86,521.38,1036.63,499.14,1009.3,499.14z"/>
				<rect x="1006.52" y="496.42" style="fill:#CDCDCD;" width="1.97" height="106.52"/>
				<rect x="955.38" y="545.66" style="fill:#CDCDCD;" width="107.83" height="1.97"/>
				
					<rect x="953.75" y="546.29" transform="matrix(0.7071 -0.7071 0.7071 0.7071 -91.9999 872.4381)" style="fill:#CDCDCD;" width="106.75" height="1.97"/>
				
					<rect x="1008.16" y="496.16" transform="matrix(0.7071 -0.7071 0.7071 0.7071 -92.2998 874.2355)" style="fill:#CDCDCD;" width="1.97" height="104.75"/>
				<circle style="fill:#868686;" cx="1007.13" cy="546.65" r="7.78"/>
			</g>
			<g>
				<path d="M961,439.15L961,439.15c-0.13-1.44,0.64-2.75,1.73-2.91c7.22-1.06,14.53-1.51,21.78-1.34c4.1,0.1,8.23,0.4,12.33,0.9
					c1.09,0.13,1.88,1.43,1.77,2.86l0,0c-0.11,1.42-1.07,2.44-2.14,2.31c-3.99-0.48-8.03-0.78-12.03-0.87
					c-7.08-0.18-14.22,0.27-21.26,1.31C962.1,441.56,961.13,440.56,961,439.15z"/>
			</g>
			<path style="fill:#868686;" d="M919.01,559.87c0.84,0.69,1.69,1.36,2.53,2.04c-0.22,0.97-0.53,1.92-0.93,2.81
				c-1.01-0.23-2.02-0.45-3.03-0.68c-0.38,0.39-0.77,0.79-1.15,1.18c0.45,1.27,0.91,2.54,1.37,3.8c-0.49,0.52-1.01,1.02-1.56,1.48
				c-0.99-0.49-2-0.98-3-1.47c-0.49,0.19-0.98,0.38-1.47,0.57c-0.1,1.21-0.21,2.42-0.3,3.63c-0.84,0.29-1.7,0.53-2.6,0.68
				c-0.59-1.04-1.18-2.07-1.77-3.12l-2.01-0.21c-0.51,1.12-1.02,2.23-1.53,3.35c-1.05-0.16-2.05-0.43-3.02-0.8v-3.45
				c-0.57-0.41-1.14-0.83-1.71-1.23c-1.22,0.44-2.42,0.88-3.63,1.33c-0.78-0.74-1.48-1.55-2.09-2.44c0.55-0.89,1.1-1.8,1.66-2.7
				c-0.22-0.77-0.43-1.52-0.66-2.29c-0.47-0.03-0.94-0.05-1.42-0.08c-0.65-0.03-1.3-0.07-1.95-0.11c-0.21-0.82-0.35-1.66-0.42-2.53
				c1.03-0.59,2.05-1.17,3.1-1.75c0.13-0.74,0.27-1.47,0.4-2.21c-0.97-0.58-1.97-1.17-2.94-1.75c0.27-0.97,0.64-1.91,1.09-2.79
				c1.21,0.03,2.4,0.05,3.61,0.08c0.45-0.61,0.9-1.21,1.36-1.81c-0.36-1.06-0.72-2.12-1.08-3.19c0.73-0.64,1.52-1.19,2.36-1.67
				c0.75,0.54,1.49,1.08,2.24,1.62c0.62-0.21,1.23-0.41,1.85-0.62c0.09-0.89,0.18-1.8,0.28-2.7c1.03-0.25,2.1-0.37,3.21-0.39
				c0.46,0.85,0.92,1.68,1.4,2.53c0.6,0.08,1.2,0.17,1.8,0.25c0.58-0.7,1.17-1.4,1.77-2.09c0.88,0.27,1.72,0.61,2.53,1.02
				c-0.05,0.87-0.1,1.73-0.16,2.59c0.56,0.44,1.12,0.88,1.67,1.32c0.83-0.35,1.65-0.7,2.47-1.04c0.66,0.66,1.27,1.38,1.8,2.13
				c-0.09,0.17-0.18,0.32-0.28,0.49c-0.29,0.54-0.58,1.08-0.87,1.61l0.74,2.01c0.88,0.13,1.76,0.26,2.63,0.4
				c0.26,0.82,0.43,1.66,0.54,2.54c-0.83,0.5-1.65,0.98-2.48,1.48C919.22,558.42,919.11,559.14,919.01,559.87z"/>
			<path style="opacity:0.58;fill:#868686;" d="M919.05,549.16c-0.09,0.17-0.18,0.32-0.28,0.49c-5.28-1.85-10.79-1.83-15.42,0.36
				c-5.21,2.47-8.16,7.17-8.68,8.03c-0.89,1.47-1.53,2.9-2,4.24c-0.65-0.03-1.3-0.07-1.95-0.11c-0.21-0.82-0.35-1.66-0.42-2.53
				c1.03-0.59,2.05-1.17,3.1-1.75c0.13-0.74,0.27-1.47,0.4-2.21c-0.97-0.58-1.97-1.17-2.94-1.75c0.27-0.97,0.64-1.91,1.09-2.79
				c1.21,0.03,2.4,0.05,3.61,0.08c0.45-0.61,0.9-1.21,1.36-1.81c-0.36-1.06-0.72-2.12-1.08-3.19c0.73-0.64,1.52-1.19,2.36-1.67
				c0.75,0.54,1.49,1.08,2.24,1.62c0.62-0.21,1.23-0.41,1.85-0.62c0.09-0.89,0.18-1.8,0.28-2.7c1.03-0.25,2.1-0.37,3.21-0.39
				c0.46,0.85,0.92,1.68,1.4,2.53c0.6,0.08,1.2,0.17,1.8,0.25c0.58-0.7,1.17-1.4,1.77-2.09c0.88,0.27,1.72,0.61,2.53,1.02
				c-0.05,0.87-0.1,1.73-0.16,2.59c0.56,0.44,1.12,0.88,1.67,1.32c0.83-0.35,1.65-0.7,2.47-1.04
				C917.9,547.69,918.51,548.41,919.05,549.16z"/>
			<path style="fill:#595A5A;" d="M834.15,549.18c0.54,0.45,1.09,0.88,1.64,1.32c-0.14,0.63-0.34,1.24-0.6,1.82
				c-0.66-0.15-1.3-0.29-1.96-0.44c-0.25,0.25-0.5,0.51-0.74,0.76c0.29,0.82,0.59,1.64,0.88,2.46c-0.32,0.34-0.66,0.66-1.01,0.96
				c-0.64-0.32-1.29-0.64-1.94-0.95c-0.32,0.12-0.64,0.25-0.95,0.37c-0.06,0.78-0.13,1.57-0.2,2.35c-0.54,0.19-1.1,0.34-1.68,0.44
				c-0.38-0.67-0.76-1.34-1.15-2.02c-0.43-0.04-0.87-0.09-1.3-0.13c-0.33,0.73-0.66,1.44-0.99,2.17c-0.68-0.1-1.33-0.28-1.95-0.52
				v-2.23c-0.37-0.27-0.74-0.53-1.11-0.8c-0.79,0.29-1.57,0.57-2.35,0.86c-0.5-0.48-0.96-1.01-1.36-1.58
				c0.36-0.58,0.71-1.16,1.08-1.75c-0.14-0.5-0.28-0.99-0.43-1.48c-0.73-0.04-1.45-0.08-2.18-0.12c-0.13-0.53-0.23-1.08-0.27-1.64
				c0.67-0.38,1.33-0.76,2-1.13c0.08-0.48,0.17-0.95,0.26-1.43c-0.63-0.38-1.27-0.76-1.9-1.13c0.17-0.63,0.41-1.23,0.71-1.81
				c0.78,0.02,1.55,0.03,2.34,0.05c0.29-0.39,0.59-0.78,0.88-1.17c-0.24-0.69-0.46-1.37-0.7-2.06c0.47-0.41,0.99-0.77,1.53-1.08
				c0.48,0.35,0.97,0.7,1.45,1.05c0.4-0.13,0.8-0.27,1.2-0.4c0.06-0.58,0.11-1.16,0.18-1.75c0.67-0.16,1.36-0.24,2.07-0.25
				c0.3,0.55,0.6,1.09,0.9,1.64c0.39,0.05,0.78,0.11,1.16,0.16c0.38-0.45,0.76-0.9,1.15-1.36c0.57,0.17,1.11,0.39,1.64,0.66
				c-0.03,0.56-0.06,1.12-0.1,1.67c0.36,0.29,0.73,0.57,1.08,0.85c0.53-0.23,1.07-0.45,1.6-0.67c0.43,0.43,0.82,0.89,1.16,1.38
				c-0.25,0.45-0.5,0.91-0.74,1.36c0.16,0.43,0.32,0.87,0.48,1.3c0.57,0.08,1.14,0.17,1.71,0.26c0.17,0.53,0.28,1.08,0.35,1.64
				c-0.53,0.32-1.07,0.64-1.6,0.96C834.29,548.24,834.22,548.71,834.15,549.18z"/>
			<path style="fill:#6A607C;" d="M904.09,448.43c-1.71,3.53-11.09-0.81-23.6,0.65c-12,1.41-20.72,7.44-22.61,4.76
				c-0.34-0.5-0.26-1-0.18-2.22c0.06-1.04,0.1-2.61-0.15-5.15c-0.2-2.04-0.42-2.98-0.98-3.93c-1.18-2.02,5.02-4.91,5.41-4.92
				c12.73-0.41,24.17-0.46,34.9,2.46c1.62,0.44,4.31,1.24,5.94,3.23c0.3,0.35,0.56,0.75,0.78,1.19
				C903.81,444.9,904.81,446.95,904.09,448.43z"/>
			<path style="opacity:0.5;fill:#6A607C;" d="M902.7,445.55c-1.72,3.54-11.1-0.81-23.6,0.66c-10.3,1.2-18.18,5.81-21.4,5.4
				c0.06-1.04,0.1-2.61-0.15-5.15c-0.2-2.04-0.42-2.98-0.98-3.93c-1.18-2.02,5.02-4.91,5.41-4.92c12.73-0.41,24.17-0.46,34.9,2.46
				c1.62,0.44,4.31,1.24,5.94,3.23C902.99,444.02,903.04,444.86,902.7,445.55z"/>
			<g>
				<path style="fill:#FFFFFF;" d="M971.45,439.04c12.02,36.04,24.03,72.08,36.05,108.11L971.45,439.04z"/>
				<path d="M1004.96,545.85l-34.65-103.92c-0.39-1.16,0.12-2.46,1.14-2.9l0,0c1.01-0.44,2.15,0.14,2.54,1.3l34.65,103.92
					c0.39,1.16-0.12,2.46-1.14,2.9l0,0C1006.48,547.59,1005.35,547.01,1004.96,545.85z"/>
			</g>
			<g>
				<path style="fill:#FFFFFF;" d="M826.75,548.38c18.35-22.72,36.71-45.45,55.06-68.17L826.75,548.38z"/>
				<path d="M826.75,548.38L826.75,548.38c-0.84-0.68-0.98-1.92-0.29-2.76l52.59-65.11c0.68-0.84,1.92-0.98,2.77-0.29l0,0
					c0.84,0.68,0.98,1.92,0.29,2.76l-52.59,65.11C828.83,548.93,827.6,549.06,826.75,548.38z"/>
			</g>
			<g>
				<path style="fill:#FFFFFF;" d="M907.39,559.07c-26.15-3.72-54.81-7.5-80.95-11.22L907.39,559.07z"/>
				<path d="M907.39,559.07c-0.15,1.07-1.14,1.82-2.22,1.67c-12.5-1.77-25.72-3.58-38.53-5.33c-12.81-1.75-26.04-3.56-38.55-5.34
					c-1.08-0.15-1.82-1.15-1.66-2.22v0c0.15-1.07,1.14-1.82,2.22-1.67c12.5,1.77,25.72,3.58,38.53,5.33
					c12.81,1.75,26.04,3.56,38.55,5.34C906.8,557,907.55,558,907.39,559.07L907.39,559.07z"/>
			</g>
			<path style="fill:#333333;" d="M904.52,559.13l-0.86-19.83c-0.04-0.81,0.6-1.5,1.41-1.54l0,0c0.81-0.03,1.5,0.6,1.54,1.41
				l0.86,19.83c0.04,0.81-0.6,1.5-1.41,1.54l0,0C905.25,560.58,904.56,559.95,904.52,559.13z"/>
			<path style="fill:#302121;" d="M895.86,537.24c0.82,1.15,1.64,2.29,2.46,3.44c4.53-0.08,9.07-0.16,13.6-0.25
				c0.79-1.31,1.58-2.62,2.38-3.93C908.15,536.75,902.01,536.99,895.86,537.24z"/>
		</g>
		<path style="fill:#3C3B5B;" d="M866.36,407.22c-1.62,4.28-3.96,9.12-5.49,17.29c-1.54,8.18,5.48,17.32,10.15,20.55
			c20.32,14.01,42.92,13.15,52.63,12.15c3.96-2.96,7.92-5.92,11.88-8.87c-6.17-4.71-13.4-9.68-21.71-14.52
			c-8.59-5-16.73-8.92-24.07-12.02C882.9,416.67,873.2,412.34,866.36,407.22z"/>
		<path style="fill:#DF925A;" d="M901.41,528.83c-0.15,0.98-0.29,1.96-0.44,2.94c0.84,0.46,1.68,0.92,2.52,1.38
			c0.45-1.38,0.9-2.77,1.35-4.15C903.7,528.94,902.56,528.89,901.41,528.83z"/>
		<path style="fill:#3C3B5B;" d="M904.59,531.08c-0.17-0.03-0.33-0.07-0.5-0.11c-1.18-0.24-2.38-0.48-3.57-0.72
			c-0.14-1.3,0-15.78,0.18-35.11c0.02-2.31,0.9-18.9,2.8-21.66c1.96-2.84,2.59-4.26,8.37-7.82c4.35-2.68,6.36-2.91,8.48-6.15
			c1.41-2.15,2.26-4.27,2.78-6.03c0.21-0.72,0.38-1.37,0.51-1.95c3.28-1.61,6.55-3.2,9.82-4.81c0.58,0.38,1.22,0.84,1.83,1.39
			c0.94,0.85,1.83,1.88,2.39,3.15c0.19,0.41,0.34,0.85,0.46,1.31c1.28,5.29-3.8,10.51-6.58,13.75c-3.15,3.69-7.67,14.69-16.69,36.68
			C912.11,509.7,908.41,519.24,904.59,531.08z"/>
		<path style="fill:#2E2E47;" d="M904.59,531.08c-0.17-0.03-0.33-0.07-0.5-0.11c-0.61-10.22-1.76-41.63,6.23-50.81
			c4.43-5.08,8.18-8.51,8.18-8.51c5.32-4.86,6.58-4.86,9.17-8.29c3.09-4.08,2.8-6.07,5.94-9.13c1.34-1.3,2.75-2.25,4.08-2.96
			c0.19,0.41,0.34,0.85,0.46,1.31c1.28,5.29-3.8,10.51-6.58,13.75c-3.15,3.69-7.67,14.69-16.69,36.68
			C912.11,509.7,908.41,519.24,904.59,531.08z"/>
		<g>
			<path style="fill:#F8A478;" d="M970.18,430.21c-5.25-5.45-9.75-10.02-13.23-13.53c-7.11-7.16-9.43-9.33-12.31-11.7
				c-3.17-2.61-6.1-4.68-8.54-6.28c-1.15-0.77-2.21-1.42-3.13-1.98c-1.03-0.27-2.25-3.74-3.13-1.96c-0.24,0.48-3.3,4.05,0.62,10.28
				c2.24,3.58,3.38,5.4,5.46,7.9c0.86,1.04,4.56,5.41,10.66,9.9c7.73,5.67,22.39,9.47,21.78,10.51
				C968.98,432.3,969.57,431.26,970.18,430.21z"/>
			<path style="fill:#F8A478;" d="M968.2,432.93c1.67,1.34,3.01,1.5,3.77,1.47c1.24-0.03,2.35-0.59,4.1-1.47
				c1.97-0.99,2.38-1.51,3.11-1.31c1,0.27,1.78,1.64,1.64,2.95c-0.12,1.07-0.84,2.01-1.88,2.46c0.31,0.18,0.79,0.4,1.39,0.41
				c1.53,0.03,2.57-1.3,3.03-1.88c0.31-0.39,1.12-1.46,1.23-3.03c0.17-2.5-1.59-4.22-2.13-4.75c-0.39-0.38-0.97-0.94-1.88-1.31
				c-1.76-0.72-3.45-0.21-4.92,0.25c-2.65,0.83-4.6,2.3-5.9,3.52C969.23,431.13,968.71,432.03,968.2,432.93z"/>
			<path style="fill:#1B1312;" d="M805.56,404.15c2.47-0.51,6.61-1.72,10.57-4.92c3.79-3.06,5.59-6.48,7.62-10.32
				c1.51-2.86,3.43-7.17,4.67-12.78c-1.35-1.31-3.64-3.92-4.79-7.87c-1.6-5.46-0.71-12.5,3.56-16.71c4.75-4.68,12.28-4.48,18.68-4.3
				c4.66,0.13,6.5,0.95,10.45,0.12c4.66-0.98,8.12-3.39,10.32-5.28c-0.7,1.84-1.39,3.69-2.09,5.53c-1.56,0.79-3.96,1.82-7.01,2.46
				c-4.48,0.94-7.33,0.4-10.94,0.25c-6.86-0.29-14.48-0.6-18.31,3.69c-4.01,4.49-2.23,12.18-1.72,14.38
				c1.01,4.38,3.15,7.49,4.55,9.22c-0.65,2.48-1.7,6.03-3.32,10.2c-2.08,5.35-3.25,8.37-5.78,11.55c-1.62,2.05-4.71,5.3-10.08,7.87
				C809.82,406.2,807.69,405.17,805.56,404.15z"/>
			<path style="fill:#363F2A;" d="M927.03,399.74c0.27-0.59,0.54-1.19,0.8-1.79c-0.94-1.08-2.23-2.68-3.56-4.73
				c-2.93-4.53-4.33-8.63-6.33-16.02c-2.88-10.66-4.29-16.02-3.08-17.75c3.19-4.52,12.46-4.03,18.17-1.25
				c0.78,0.37,2.05,1.01,3.35,2.07c0.92,0.76,1.86,1.74,2.62,3c1.53,2.51,1.62,4.82,1.5,10.57c-0.24,12.65-0.94,16.06,0.54,21.34
				c0.79,2.82,1.87,5,2.64,6.37c-1.05-0.12-2.88-0.23-5.05,0.24c-0.64,0.12-1.32,0.3-2.01,0.55c-3.04,1.06-5.02,2.8-5.98,3.78
				C929.43,403.99,928.22,401.86,927.03,399.74z"/>
			<path style="fill:#434C31;" d="M936.27,396.78c0.02-1.32,0.04-2.65,0.05-3.97c-1.73-2.2-4.26-6.1-5.23-11.48
				c-1.75-9.77,2.87-17.7,5.29-21.06c0.92,0.76,1.86,1.74,2.62,3c1.53,2.51,1.62,4.82,1.5,10.57c-0.24,12.65-0.94,16.06,0.54,21.34
				c0.79,2.82,1.87,5,2.64,6.37c-1.05-0.12-2.88-0.23-5.05,0.24C937.91,400.54,937.12,398.9,936.27,396.78z"/>
			<path style="fill:#C1734E;" d="M933.76,368.41c-2.04-0.03-3.26,3.86-5.3,3.83c-2.33-0.03-10.27,5.6-12.6,5.57
				c-1.08-5.9,2.52-21.92,1.45-27.83c-0.54-2.94-1.8-6.32-2.33-9.26c3.22,1.82,6.63,1.05,9.84,2.86c2.7-1.22,5.71-2.86,8.84-5.06
				c1.88-1.32,3.56-2.68,5.05-4c0.97,0.56,2.94,1.89,4.17,4.44c0.67,1.41,1,2.97,1.02,4.57c0.03,2.65-0.86,5.37-2.57,7.58
				c-2.77,2.26-5.54,4.51-8.3,6.76c0.08,1.37,0.18,2.75,0.26,4.12C933.45,364.15,933.59,366.28,933.76,368.41z"/>
			<path style="fill:#363F2A;" d="M933.9,371.37c-3.34,5.85-8.38,15.18-11.72,21.04c-0.88,0.16-1.76,0.3-2.65,0.45
				c-1.04,1.43-2.91,4-5.27,7.19c-7.91,10.74-10.59,17.99-11.66,22.44c-4.5-2.64-9.43,4.31-14.52,0.23c-1.95-1.58-8.3-5.28-12.98-8
				c-2.86-1.67-5.27-6.21-5.51-6.44c6.35-12.8,10.97-28.18,16.72-43.94c1.86-5.1,7.58-29.29,28.67-25.14c5,1.43,7.22,2.77,7.24,2.92
				c0.82,7.46,3.13,22.28,3.95,29.75c4.02-2.47,4.64-8.23,6.86-13.99C933.54,361.07,935.07,367.84,933.9,371.37z"/>
			<path style="fill:#C1734E;" d="M967.3,434.45c-5.98-4.64-11.09-8.52-15.04-11.49c-8.07-6.07-10.68-7.88-13.86-9.81
				c-3.51-2.12-6.7-3.75-9.35-4.99c-1.25-0.59-2.39-1.09-3.38-1.51c-1.06-0.12-5.21-0.5-5.83,1.38c-0.16,0.51-0.23,1.61,4.54,7.21
				c2.73,3.22,4.12,4.86,6.54,7.03c1,0.91,5.29,4.7,11.98,8.26c8.46,4.5,22.87,6.86,23.21,6.91
				C966.55,436.32,966.85,435.56,967.3,434.45z"/>
			<g>
				<path style="fill:#4F281F;" d="M960.39,335.33c-0.07-0.02-4.66-3.35-4.74-3.36c-2.67-0.56-8.67,9.28-30.22,11.11
					c-0.18-1.45-0.36-3.49-0.34-5.94c0.02-2.49,0.27-6.98,1.91-12.43c1.32-4.44,2.08-6.87,4.49-8.82c1.61-1.3,3.32-1.86,4.5-2.14
					c1.56,0.32,3.12,0.65,4.67,0.96c0.66-1.55,1.33-2.06,2.94-3.07c1.44,0.05,5.36,0.38,7.37,1.54c2.6,1.52,3.79,3.74,4.64,5.08
					C957.24,320.82,960.67,335.44,960.39,335.33z"/>
				<path style="fill:#F8A478;" d="M957.68,328.25c-0.02,1.08-0.04,2.17-0.06,3.26c-0.05,2.58-0.09,5.17-0.15,7.76
					c-1,0.95-2.01,1.9-3.01,2.85c-0.15,1.43-0.04,8.32,0.32,9.31c-0.84,0.27-2.99-0.5-3.41-0.56c0,0.36-0.62,1.64-0.61,2.01
					c-0.96-0.3,0.07,3.7-1.96,7.69c-0.39,0.75-1.95,0.31-2.77,0.04c-1.43-0.67-2.84-1.46-4.17-2.4c-3.4-2.39-6.25-5.67-7.54-9.89
					c-0.35-0.78-0.72-1.54-1.12-2.27c-0.22-1.59,1.73-2.71,2.6-4.08c-0.59-0.4-1.86-1.37-2.52-3.06c-0.34-0.88-0.43-1.71-0.37-2.46
					l0,0c0.1-1.4,0.68-2.48,0.96-2.98c0.52-0.97,1.24-2.31,2.41-2.36c1.33-0.03,2.91,1.61,3.61,4.15c-0.1,0.3-0.2,0.59-0.29,0.89
					c-0.19,0.59-0.38,1.17-0.58,1.75c0.7,0.25,1.39,0.5,2.09,0.75c0.44-1.44,1.08-3.09,2.02-4.83c1.3-2.43,2.77-4.29,4.04-5.66
					c1.89,0.01,3.79,0.03,5.68,0.04C954.47,328.22,956.08,328.24,957.68,328.25z"/>
				<path style="fill:#C1734E;" d="M945.08,349.6c0,0,1.94,1.74,2.7,2.24c1.14,0.74,2.28,0.97,3.06,1.05
					c-0.03,0.45-0.28,0.55-0.56,0.59c0.03,0.02,0.38,0.28,0.38,0.73c0,0.34-0.21,0.65-0.53,0.8c-0.73-0.28-1.86-0.84-2.76-1.98
					C946.7,352.18,945.08,349.6,945.08,349.6z"/>
				<g>
					<path style="fill:#C1734E;" d="M949.04,339.95c0.81-0.74,1.66-1.52,2.56-1.93c1.2-0.55,3.09-0.7,3.53-0.06
						c0.46,0.66-0.71,2.1-1.48,3.05c-0.46,0.57-0.9,0.99-1.2,1.25c0,0.55,0,1.09,0,1.64c-0.42-0.25-0.88-0.56-1.36-0.93
						c-1.14-0.88-1.97-1.8-2.55-2.55C948.66,340.31,948.83,340.14,949.04,339.95z"/>
					<path style="fill:#FFFFFF;" d="M952.68,343.02c-0.06,0.08-0.11,0.16-0.18,0.23c-0.13-0.09-0.28-0.19-0.41-0.28
						c-0.09-0.05-0.17-0.11-0.27-0.18c-0.91-0.6-1.82-1.22-2.72-1.84c0.25-0.31,0.79-0.9,1.69-1.25c1.36-0.53,2.59-0.14,2.92-0.03
						c0.01,0.09,0,0.18-0.01,0.29c0,0.04,0,0.1,0,0.14c-0.02,0.34-0.09,0.77-0.21,1.25c-0.07,0.15-0.11,0.3-0.17,0.44
						c-0.16,0.44-0.36,0.8-0.55,1.1C952.75,342.93,952.71,342.98,952.68,343.02z"/>
					<path style="fill:#321A12;" d="M955.5,339.49c-0.03,0.22-2.46,0.43-4.65,0.86c-0.72,0.14-1.3,0.3-1.68,0.42
						c1.34,0.91,2.67,1.82,4.01,2.73c0.05,0.18,0.09,0.36,0.14,0.54c-1.51-1.1-3.03-2.21-4.54-3.31c0.27-0.17,0.66-0.4,1.16-0.64
						c0.93-0.45,1.58-0.76,2.39-0.8C953.42,339.23,955.53,339.29,955.5,339.49z"/>
					<path style="fill:#321A12;" d="M950.9,334.98c0.94-0.1,1.89-0.2,2.83-0.3c1.23,1.64,2.63,3.28,4.23,4.88
						c0.18,0.18,0.36,0.36,0.55,0.53c-0.71,0.04-1.42,0.08-2.12,0.12c-0.25-0.76-0.96-2.55-2.77-3.92
						C952.6,335.53,951.59,335.16,950.9,334.98z"/>
					<path d="M952.51,343.06c-0.21,0-0.4-0.06-0.56-0.18c-0.04-0.01-0.08-0.04-0.1-0.06c-0.05-0.04-0.09-0.1-0.12-0.17
						c-0.34-0.49-0.2-1.32,0.38-1.94c0.64-0.69,1.57-0.87,2.07-0.43c-0.01,0.04-0.02,0.1-0.03,0.14c-0.09,0.33-0.26,0.73-0.48,1.17
						c-0.1,0.13-0.17,0.27-0.26,0.4c-0.25,0.39-0.52,0.71-0.78,0.95C952.6,342.98,952.55,343.03,952.51,343.06z"/>
					<path style="fill:#FFFFFF;" d="M953.8,340.99c-0.16,0.14-0.36,0.17-0.46,0.07c-0.09-0.1-0.04-0.3,0.12-0.44
						c0.16-0.14,0.36-0.17,0.46-0.07C954.01,340.65,953.96,340.85,953.8,340.99z"/>
				</g>
				<path style="fill:#C1734E;" d="M950.55,348.33c-0.14-0.09-1.15,0.6-1.03,1.42c0.1,0.62,0.82,1.16,1.71,1.06
					c-0.33-0.09-0.76-0.26-0.95-0.64C949.9,349.42,950.7,348.43,950.55,348.33z"/>
				<path style="fill:#F8A478;" d="M952.86,328.21c-1.04,0.26-2.47,0.72-4.01,1.77c-1.25,0.85-3.96,2.68-4.5,5.58
					c-0.67,3.58,2.43,6.21,1.14,7.82c-0.5,0.63-1,0.26-2.85,1.08c-1.16,0.51-2.99,1.33-3.89,2.9c-1.23,2.16-0.21,4.82,0.45,6.55
					c0.77,2.03,1.9,3.46,2.68,4.3c-3.4-2.39-6.25-5.67-7.54-9.89c-0.35-0.78-0.72-1.54-1.12-2.27c-0.22-1.59,1.73-2.71,2.6-4.08
					c-0.59-0.4-1.86-1.37-2.52-3.06c-0.34-0.88-0.43-1.71-0.37-2.46l0,0c0.1-1.4,0.68-2.48,0.96-2.98c0.52-0.97,1.24-2.31,2.41-2.36
					c1.33-0.03,2.91,1.61,3.61,4.15c-0.1,0.3-0.2,0.59-0.29,0.89c-0.19,0.59-0.38,1.17-0.58,1.75c0.7,0.25,1.39,0.5,2.09,0.75
					c0.44-1.44,1.08-3.09,2.02-4.83c1.3-2.43,2.77-4.29,4.04-5.66C949.07,328.18,950.96,328.2,952.86,328.21z"/>
				<path style="opacity:0.5;fill:#F8A478;" d="M939.86,335.27c-0.09,0.3-0.18,0.6-0.27,0.89c-0.12-0.3-0.28-0.65-0.51-1.01
					c-0.41-0.68-1.41-2.33-2.67-2.34c-0.97-0.01-1.67,0.98-2.54,2.2c-0.39,0.55-0.71,1.09-0.96,1.62c0.07-1.4,0.62-2.5,0.88-3
					c0.49-0.98,1.18-2.34,2.35-2.41C937.47,331.15,939.09,332.75,939.86,335.27z"/>
				<path style="fill:#EE482D;" d="M962.87,325.26c-0.76,3.27-2.67,5.7-3.18,6.34c-2.76-0.64-5.8-1.2-9.08-1.54
					c-9.89-1.05-18.45,0.06-24.92,1.53c-1.88-0.36-5.37-1.31-8.74-4.06c-1.95-1.59-4.01-3.27-4.54-5.16
					c-0.1-0.32-0.14-0.64-0.13-0.97c0.07-5.37,13.45-9.02,18.45-10.39c8.12-2.21,14.48-3.96,21.51-1.12
					c2.44,0.99,9.43,3.79,10.76,10.43C963.35,322.08,963.24,323.76,962.87,325.26z"/>
				<path style="fill:#070808;" d="M928.38,330.94c2.05,4.33,3.91,7.72,5.28,10.06c1.2,2.06,2.08,3.43,2.83,5.63
					c1.07,3.14,1.2,5.98,1.12,7.93c0.42,0.51,0.83,1.01,1.25,1.52c0.01-2.33,0.25-5.04,0.94-7.98c2.15-9.16,7.47-15.28,10.59-18.32
					c-0.85-0.05-1.69-0.11-2.54-0.16c-1.03,1.11-2.59,2.97-4.08,5.53c-3.45,5.97-3.2,10.15-4.96,10.38
					c-2.22,0.29-4.85-6.04-5.75-8.63c-0.9-2.58-1.26-4.89-1.41-6.64C930.57,330.5,929.47,330.72,928.38,330.94z"/>
				<path style="fill:#C33A27;" d="M924.6,328.35c-0.14,0.3-7.93-1.74-7.97-4.4c-0.05-3.41,12.68-6,14.11-6.29
					c11.38-2.26,24.04-1.11,24.32,1.29c0.16,1.31-3.34,2.95-5.95,3.62c-6.43,1.64-9.4-2.17-17.63-2.37
					c-5.87-0.14-12.32,1.61-12.54,3.72C918.72,326.04,924.73,328.08,924.6,328.35z"/>
				<path style="fill:#EE482D;" d="M962.87,325.26c-0.42-1.54-1.15-3.35-2.41-5.11c-4.77-6.66-13.37-7.43-18.99-7.93
					c-2.82-0.25-19.1-1.72-27.54,8.1c-0.61,0.72-1.12,1.41-1.53,2.04c-0.1-0.32-0.14-0.64-0.13-0.97
					c0.07-5.37,13.45-9.02,18.45-10.39c8.12-2.21,14.48-3.96,21.51-1.12c2.44,0.99,9.43,3.79,10.76,10.43
					C963.35,322.08,963.24,323.76,962.87,325.26z"/>
			</g>
			<path style="fill:#434C31;" d="M918.82,350.27c1.87,3.63,1.78,7.08,1.76,8.53c0,0-0.15,11.08,4.27,31.32
				c1.02,4.66,2.91,11.22,6.79,18.88c-1.2,0.24-3.01,0.75-4.93,1.94c-2.3,1.42-3.7,3.16-4.44,4.24c-0.87-1.15-1.74-2.3-2.61-3.45
				c0.17-0.55,0.33-1.09,0.5-1.64c-1.83-1.64-4.52-4.22-7.34-7.74c-11.31-14.1-13.23-28.75-14.08-35.95
				c-1.5-12.7,1.12-16.99,2.55-18.83c0.71-0.91,3.63-4.68,7.89-4.71C914.86,342.8,918.38,349.42,918.82,350.27z"/>
			<path style="fill:#513124;" d="M911.99,338.11c-2.48,2.25-4.64,4.45-6.51,6.53c-3.31,3.65-5.73,6.9-7.42,9.37
				c-10.08,14.68-11.83,26.68-25.4,55.23c-3.41,7.18-5.64,11.35-10.49,14.09c-8.31,4.71-20.18,2.88-28.02-3.27
				c-10.17-8-10.49-20.94-9.83-27.76c0.22-2.29,0.55-3.88,0.66-4.37c0.67-3.03,3.24-12.68,12.29-19.66
				c4.39-3.39,8.79-4.97,11.63-5.73c6.22-8.36,12.15-14.7,16.71-19.17c9.13-8.96,14.03-11.62,17.37-13.12
				c4.8-2.13,9.75-4.34,15.73-2.95C906.78,329.17,910.98,336.27,911.99,338.11z"/>
			<path style="fill:#1B1312;" d="M934.28,357.28c-0.23,2.78-0.55,5.08-0.82,6.72c-0.66,4.02-1.45,10.92-5.41,18.35
				c-0.87,1.64-1.75,3.28-2.62,4.92c2.37-7.02,4.52-14.67,6.23-22.94c0.44-2.12,0.83-4.21,1.19-6.27c0.46-0.41,0.93-0.82,1.39-1.23
				C934.25,356.98,934.26,357.13,934.28,357.28z"/>
			<path style="fill:#1B1312;" d="M897.12,390.26c1.86,0.24,3.88,0.59,6.02,1.11c1.26,0.3,2.45,0.63,3.56,0.98
				c0.57,1.19,1.15,2.38,1.72,3.56c-4.71-0.86-9.42-1.72-14.13-2.58C895.24,392.31,896.18,391.28,897.12,390.26z"/>
			<path style="opacity:0.26;fill:#513124;" d="M911.99,338.11c-3.31,3.65-12.24,13.43-13.93,15.9
				c-10.08,14.68-11.83,26.68-25.4,55.23c-3.41,7.18-5.64,11.35-10.49,14.09c-8.31,4.71-20.18,2.88-28.02-3.27
				c-10.17-8-10.49-20.94-9.83-27.76c1.12,3.56,3.05,7.48,6.31,11.12c5.1,5.68,11.08,7.95,14.01,8.85
				c5.96-14.74,12.81-25.83,18.19-33.43c8.37-11.82,16.99-20.57,24.33-28.02c4.92-4.98,9.19-8.99,12.29-11.8
				C902.77,338.85,909.99,336.24,911.99,338.11z"/>
			<path style="fill:#1B1312;" d="M912.24,338.27c1.7,0.02,7.37,0.29,10.32,4.34c1.16,1.59,1.52,3.25,1.72,4.67
				c1.15,8.23-1.63,18.59-2.87,22.78c-0.44-2.46-0.87-4.92-1.31-7.37c0.41-2.04,0.85-5.01,0.82-8.6c-0.03-4.44-0.05-6.91-1.47-8.77
				c-3.51-4.57-12.97-2.12-13.52-1.97c0.1-0.27,1.96-5.13,5.16-5.24C911.43,338.1,911.81,338.14,912.24,338.27z"/>
			<path style="fill:#1B1312;" d="M875.86,403.41c4.82-4.27,9.75-8.85,14.75-13.76c3.71-3.65,7.23-7.26,10.57-10.82
				c0.53,1.97,1.07,3.93,1.6,5.9c-2.93,3.39-6.24,6.91-9.95,10.45c-8.05,7.66-16.06,13.55-23.23,18.07
				c1.47-3.03,2.95-6.06,4.42-9.09C874.63,403.9,875.24,403.66,875.86,403.41z"/>
			<g>
				<path style="fill:#CBBA3F;" d="M826.6,375.2c1.66,0.8,7.96,3.59,15.24,1.31c0.57-0.18,12.71-4.2,13.44-14.91
					c0.42-6.15-3.09-12.11-8.19-14.91c-8.36-4.59-20.81-0.6-23.92,8.36c-1.97,5.65-0.22,13.26,5.57,17.21
					c5.02,3.42,11.3,2.9,15.73,0.49c1.13-0.61,7.17-4.07,7.87-11.14c0.04-0.41,0.61-7.26-4.42-11.47
					c-5.45-4.56-15.51-4.41-19.66,2.13c-3.05,4.81-2.3,12.09,2.62,16.06c4.79,3.87,12.61,3.85,16.39-0.98
					c2.77-3.55,3.18-9.45-0.33-13.27c-3.54-3.86-10.08-4.52-13.11-1.47c-4.03,4.06-0.83,13.67,3.28,14.58
					c3.61,0.81,9.25-4.83,8.19-8.03c-1.01-3.05-8.2-4.15-9.34-2.29c-1.13,1.84,3.66,6.62,4.1,7.05L826.6,375.2z"/>
				<path style="fill:#887830;" d="M826.6,375.2c0,0,0.25,0.11,0.74,0.32c0.49,0.2,1.23,0.49,2.22,0.79c1.96,0.58,5,1.23,8.8,0.74
					c1.9-0.25,3.94-0.81,5.99-1.88c2.06-1.02,4.16-2.41,6.04-4.26c1.88-1.84,3.4-4.29,4.06-7.13c0.68-2.83,0.38-6.03-0.88-8.97
					c-1.25-2.93-3.46-5.65-6.42-7.35l-0.28-0.16l-0.07-0.04c-0.03-0.02,0.02,0.01-0.04-0.02l-0.15-0.07l-0.61-0.28
					c-0.41-0.18-0.82-0.4-1.22-0.5l-1.22-0.39c-0.43-0.09-0.86-0.18-1.29-0.27c-1.74-0.28-3.56-0.33-5.36-0.08
					c-1.8,0.27-3.59,0.79-5.28,1.58c-1.69,0.78-3.25,1.89-4.57,3.22c-1.31,1.34-2.41,2.93-3.04,4.73c-0.14,0.38-0.32,0.96-0.41,1.4
					c-0.09,0.45-0.2,0.9-0.24,1.39c-0.13,0.96-0.13,1.94-0.07,2.91c0.29,3.89,2.15,7.79,5.34,10.19c3.14,2.48,7.49,3.26,11.48,2.32
					c2-0.44,3.92-1.3,5.57-2.52c1.66-1.22,3.13-2.75,4.14-4.52c1.03-1.75,1.57-3.81,1.59-5.81c-0.02-2.06-0.45-4.16-1.33-5.99
					c-0.43-0.92-0.97-1.79-1.65-2.53c-0.31-0.4-0.7-0.72-1.06-1.07c-0.32-0.26-0.86-0.67-1.26-0.93c-1.64-1.04-3.7-1.75-5.73-1.98
					c-2.05-0.24-4.14-0.02-6.06,0.64c-1.92,0.65-3.63,1.83-4.81,3.42c-2.45,3.15-2.78,7.73-1.24,11.35c0.79,1.81,2.01,3.41,3.6,4.54
					c1.57,1.17,3.44,1.85,5.35,2.15c3.83,0.56,7.87-0.8,9.88-3.98c1.94-3.02,2.14-7.26,0.3-10.25c-0.24-0.37-0.47-0.74-0.76-1.06
					l-0.21-0.25c-0.02-0.03-0.15-0.15-0.22-0.22l-0.5-0.49c-0.62-0.53-1.35-1.04-2.12-1.43c-1.55-0.77-3.26-1.17-4.93-1.11
					c-1.66,0.04-3.28,0.58-4.4,1.64c-0.19,0.22-0.57,0.63-0.75,0.93c-0.16,0.33-0.38,0.6-0.49,0.99c-0.14,0.36-0.27,0.73-0.33,1.11
					c-0.1,0.38-0.14,0.77-0.16,1.16c-0.11,1.56,0.13,3.13,0.61,4.57c0.48,1.44,1.18,2.79,2.15,3.81c0.5,0.47,1.03,0.94,1.65,1.11
					l0.22,0.09l0.22,0.03c0.17,0.01,0.38,0.07,0.52,0.05c0.3-0.02,0.6-0.03,0.93-0.13c1.29-0.3,2.45-1.07,3.43-1.91
					c0.97-0.86,1.79-1.85,2.33-2.92c0.54-1.07,0.73-2.26,0.12-3.2c-0.58-0.84-1.58-1.43-2.53-1.81c-0.97-0.38-1.96-0.59-2.9-0.68
					c-0.94-0.08-1.86-0.04-2.61,0.27c-0.16,0.11-0.37,0.17-0.47,0.32c-0.05,0.06-0.15,0.14-0.16,0.19l-0.11,0.28
					c-0.06,0.34-0.02,0.71,0.1,1.06c0.48,1.39,1.3,2.41,1.92,3.22c1.29,1.61,2.08,2.38,2.08,2.38s-0.2-0.19-0.58-0.57
					c-0.37-0.38-0.92-0.95-1.59-1.74c-0.33-0.4-0.69-0.85-1.06-1.37c-0.37-0.52-0.74-1.12-1-1.85c-0.13-0.35-0.21-0.78-0.13-1.23
					l0.1-0.29c0.06-0.14,0.14-0.19,0.22-0.29c0.14-0.2,0.36-0.27,0.55-0.41c0.84-0.37,1.79-0.42,2.77-0.37
					c0.98,0.06,2.01,0.26,3.03,0.63c1.02,0.39,2.07,0.91,2.85,1.99c0.3,0.47,0.56,1.2,0.47,1.83c0.02,0.34-0.11,0.64-0.16,0.97
					c-0.11,0.3-0.21,0.62-0.35,0.92c-0.56,1.19-1.4,2.26-2.42,3.2c-1.02,0.92-2.22,1.78-3.71,2.18c-0.36,0.12-0.77,0.16-1.2,0.18
					c-0.21,0.02-0.37-0.03-0.56-0.04c-0.11-0.01-0.13-0.01-0.32-0.04l-0.29-0.1c-0.82-0.21-1.46-0.76-2.06-1.29
					c-1.14-1.15-1.9-2.6-2.45-4.15c-0.53-1.55-0.83-3.23-0.73-4.98c0.02-0.44,0.06-0.87,0.17-1.31c0.06-0.44,0.2-0.87,0.36-1.3
					c0.11-0.43,0.4-0.86,0.63-1.28c0.11-0.23,0.26-0.35,0.39-0.53l0.2-0.25l0.1-0.13l0.05-0.06c0.09-0.1,0.06-0.06,0.1-0.1
					c1.38-1.35,3.3-1.99,5.18-2.06c1.9-0.09,3.82,0.33,5.58,1.17c0.88,0.43,1.69,0.97,2.5,1.65l0.51,0.49
					c0.09,0.1,0.15,0.13,0.28,0.28l0.24,0.29c0.34,0.38,0.62,0.8,0.9,1.23c0.53,0.87,0.93,1.82,1.2,2.82c0.26,1,0.37,2.03,0.36,3.07
					c-0.04,2.09-0.6,4.14-1.77,6.03l-0.43,0.62c-0.18,0.26-0.36,0.43-0.54,0.64c-0.34,0.43-0.76,0.77-1.17,1.14
					c-0.86,0.66-1.81,1.26-2.84,1.63c-2.04,0.82-4.29,0.98-6.46,0.71c-2.16-0.32-4.32-1.1-6.14-2.44c-1.84-1.3-3.29-3.17-4.2-5.25
					c-0.89-2.1-1.26-4.42-1.04-6.71c0.12-1.14,0.34-2.29,0.76-3.37c0.45-1.14,0.93-2.13,1.69-3.07c0.69-0.96,1.58-1.75,2.52-2.47
					c0.98-0.65,2.02-1.23,3.13-1.6c2.21-0.78,4.58-1.02,6.89-0.77c2.33,0.28,4.55,0.99,6.63,2.3c0.52,0.34,0.86,0.6,1.4,1.03
					c0.44,0.41,0.89,0.8,1.27,1.26c0.8,0.89,1.45,1.9,1.95,2.98c1.02,2.15,1.47,4.49,1.49,6.82c-0.03,2.4-0.68,4.73-1.88,6.76
					c-1.17,2.04-2.83,3.73-4.68,5.08c-1.87,1.37-4.02,2.31-6.26,2.8c-2.23,0.5-4.57,0.54-6.81,0.1c-1.12-0.24-2.21-0.57-3.25-1.05
					c-1.07-0.52-2.01-1.04-2.9-1.76c-3.62-2.77-5.66-7.15-5.96-11.47c-0.07-1.09-0.06-2.18,0.1-3.25c0.05-0.53,0.17-1.08,0.3-1.62
					c0.14-0.55,0.26-0.95,0.46-1.52c0.72-2.05,1.99-3.83,3.47-5.3c1.5-1.46,3.22-2.63,5.07-3.46c1.85-0.82,3.79-1.35,5.73-1.62
					c1.95-0.24,3.91-0.16,5.79,0.17c0.47,0.1,0.93,0.21,1.4,0.31c0.46,0.14,0.92,0.31,1.37,0.47c0.47,0.14,0.86,0.36,1.27,0.55
					l0.61,0.29l0.15,0.07c-0.01,0,0.09,0.04,0.11,0.06l0.07,0.05l0.3,0.18c3.2,1.91,5.51,4.86,6.8,8.01
					c1.3,3.16,1.58,6.59,0.78,9.61c-0.78,3.03-2.48,5.57-4.47,7.43c-2,1.87-4.18,3.24-6.31,4.23c-2.11,1.03-4.25,1.57-6.18,1.77
					c-3.89,0.41-6.93-0.38-8.88-1.02c-0.98-0.33-1.71-0.64-2.2-0.86C826.84,375.31,826.6,375.2,826.6,375.2z"/>
			</g>
			<path style="fill:#6B463C;" d="M863.45,346.63c-1.96-0.47-3.26-2.86-3.44-4.67c-0.38-3.73,3.75-6.78,6.39-8.73
				c2.84-2.09,8.55-5.54,17.7-6.39c-3.56-0.08-7.13-0.16-10.69-0.25c0.41-0.57,0.82-1.15,1.23-1.72c3.16-0.46,7.39-0.75,12.29-0.12
				c3.35,0.43,6.25,1.18,8.6,1.97c-3.83,0.45-9.82,1.68-15.61,5.65C870.92,338.54,867.73,347.65,863.45,346.63z"/>
			<path style="fill:#C1734E;" d="M965.78,437.66c1.85,1.08,3.2,1.05,3.94,0.92c1.22-0.21,2.24-0.92,3.84-2.05
				c1.8-1.27,2.13-1.84,2.89-1.75c1.03,0.13,2,1.37,2.05,2.68c0.04,1.08-0.54,2.11-1.51,2.7c0.33,0.13,0.84,0.28,1.44,0.2
				c1.51-0.19,2.36-1.66,2.73-2.3c0.25-0.43,0.9-1.6,0.78-3.18c-0.19-2.5-2.18-3.95-2.79-4.4c-0.44-0.32-1.1-0.79-2.05-1.03
				c-1.85-0.46-3.44,0.28-4.83,0.95c-2.5,1.2-4.22,2.93-5.33,4.34C966.55,435.73,966.17,436.69,965.78,437.66z"/>
		</g>
		<path style="fill:#598D7B;" d="M899.12,535.11c0.49-1.35,0.97-2.69,1.46-4.04c1.19,0.23,2.37,0.45,3.56,0.68
			c0.32,1.65,1,2.51,1.55,2.99c1.49,1.29,3.59,1.12,4.3,2.7c0.12,0.27,0.17,0.52,0.19,0.66c-1.85-0.07-3.39-0.32-4.52-0.55
			c-0.58-0.12-1.48-0.31-2.62-0.69C901.37,536.31,900.05,535.65,899.12,535.11z"/>
		<circle cx="976.65" cy="437.12" r="2.79"/>
	</g>
	<path style="fill:#8D8A34;" d="M150.12,569.08c-1.8-1.73-8.15-8.23-8.1-17.68c0.03-5.01,1.86-12.19,5.05-12.66
		c4.9-0.73,10.69,14.76,11.5,16.96c0.08,3.61,0.16,7.22,0.24,10.82c-0.37-9.57-0.45-27.57,4.93-28.91
		c4.23-1.05,12.58,8.02,12.55,17.87c-0.02,5.62-2.75,9.79-4.14,11.61c1.67-1.49,8.23-6.96,18.24-7.15c10.6-0.2,17.62,5.67,19.2,7.07
		c-6.91-21.49-6.34-27.98-3.96-29.29c2.92-1.61,9.81,3.94,12.99,9.96c4.69,8.86,0.89,17.89,0.32,19.19
		c0.02-5.14,0.83-16.58,9.12-25.26c3.99-4.18,9.93-7.94,11.37-6.69c1.48,1.29-2.57,7.16-8.02,19.76
		c-2.75,6.36-4.68,11.69-5.87,15.18C200.41,569.6,175.27,569.34,150.12,569.08z"/>
	<g>
		<ellipse style="fill:#8D8A34;" cx="262.09" cy="555.14" rx="28.84" ry="3.57"/>
		<path style="fill:#8D8A34;" d="M329.6,552.32c0,1.56-3.11,2.82-6.95,2.82c-3.84,0-6.95-1.26-6.95-2.82c0-1.56,3.11-2.82,6.95-2.82
			C326.49,549.5,329.6,550.76,329.6,552.32z"/>
		<ellipse style="fill:#8D8A34;" cx="318.13" cy="567.06" rx="15.4" ry="3.05"/>
	</g>
</g>
</svg>
